<svg width="40" height="40" viewBox="0 0 40 40" fill="none" xmlns="http://www.w3.org/2000/svg">
<path d="M29.8646 8.625C29.7188 9.04167 29.6146 9.5 29.3958 9.875C29.0208 10.5313 29.0104 11.125 29.4062 11.7813C30.2292 13.1354 29.6354 14.9896 28.1875 15.5833C27.4688 15.8854 27.1146 16.3854 27.0521 17.1458C26.9167 18.6354 25.5208 19.7188 24.0417 19.5313C23.9688 19.5208 23.8854 19.5 23.8125 19.4792C23.0938 19.2813 22.5208 19.4792 22.0312 20.0417C21.1875 21.0208 19.7396 21.25 18.625 20.5938C18.375 20.4479 18.1458 20.2292 17.9583 20.0104C17.5 19.4896 16.9479 19.3125 16.2813 19.4583C14.625 19.8229 13.1354 18.7708 12.9688 17.1042C12.8958 16.375 12.5521 15.8854 11.8646 15.5938C10.3542 14.9583 9.79167 13.1458 10.6354 11.7396C11.0104 11.1146 11 10.5313 10.625 9.90625C9.78125 8.5 10.3646 6.69792 11.875 6.05208C12.5417 5.77083 12.9479 5.29167 12.9479 4.57292C12.9479 3.20833 14.5833 1.69792 16.2917 2.17708C16.9687 2.36458 17.5104 2.14583 17.9583 1.625C19.0833 0.354167 20.9479 0.354167 22.0625 1.625C22.5208 2.14583 23.0521 2.35417 23.7292 2.16667C25.4375 1.69792 27.0625 3.1875 27.0729 4.5625C27.0729 5.26042 27.4583 5.73958 28.1146 6.02083C29.1562 6.48958 29.7708 7.44792 29.8646 8.625ZM19.9792 16.5104C23.125 16.5208 25.6771 13.9792 25.6875 10.8438C25.6979 7.70833 23.1458 5.15625 20.0104 5.14583C16.875 5.14583 14.3125 7.67708 14.3021 10.8125C14.3021 13.9479 16.8438 16.5 19.9792 16.5104Z" fill="currentColor"/>
<path d="M20.0104 39.3022C17.6562 39.3022 15.3021 39.3022 12.9479 39.3022C12.2604 39.3022 12.0833 39.1043 12.1667 38.4376C12.625 34.8855 15.1042 32.2293 18.625 31.5418C22.7292 30.7397 26.9687 33.6147 27.7396 37.7293C27.7917 38.0001 27.8229 38.271 27.8646 38.5418C27.9271 39.0522 27.7187 39.3022 27.1979 39.3022C24.7917 39.3022 22.3958 39.3022 20.0104 39.3022Z" fill="currentColor"/>
<path d="M28.9166 37.1666C27.6978 34.0729 27.552 33.8541 25.4583 31.9479C26.2603 31.1562 27.1874 30.5937 28.2499 30.2395C32.7187 28.7499 37.3958 31.802 37.8749 36.5312C37.9166 36.9479 37.7187 37.1874 37.3124 37.1874C34.5416 37.1874 31.7708 37.1874 28.9999 37.1874C28.9583 37.1874 28.9374 37.177 28.9166 37.1666Z" fill="currentColor"/>
<path d="M14.4792 31.8749C13.8125 32.6249 13.125 33.3124 12.5312 34.0728C11.875 34.9061 11.4583 35.8749 11.1875 36.9061C11.1354 37.1145 11.0625 37.1978 10.8333 37.1978C8.1354 37.1874 5.4479 37.1978 2.74999 37.1874C2.29165 37.1874 2.09374 36.9582 2.14582 36.4999C2.53124 33.1145 4.93749 30.552 8.29165 29.9478C10.4687 29.552 12.9375 30.3436 14.4792 31.8749Z" fill="currentColor"/>
<path d="M20.0208 22.4689C22.3854 22.4898 24.302 24.4273 24.2708 26.7502C24.2395 29.1148 22.2916 31.0314 19.9687 30.9898C17.625 30.9585 15.7291 29.0418 15.7395 26.7189C15.7395 24.3648 17.6666 22.4481 20.0208 22.4689Z" fill="currentColor"/>
<path d="M30.5312 29.4689C28.3541 29.4585 26.5937 27.6877 26.5833 25.521C26.5833 23.3231 28.3853 21.5418 30.5937 21.5627C32.7708 21.5835 34.5312 23.3648 34.5208 25.5314C34.5103 27.7189 32.7291 29.4793 30.5312 29.4689Z" fill="currentColor"/>
<path d="M9.42698 29.4689C7.22906 29.4585 5.45823 27.6668 5.47906 25.4898C5.4999 23.3023 7.28115 21.5418 9.47906 21.5627C11.6561 21.5835 13.4166 23.3543 13.4166 25.521C13.4061 27.7085 11.6249 29.4793 9.42698 29.4689Z" fill="currentColor"/>
<path d="M19.0416 11.1144C19.9791 10.2081 20.8333 9.35395 21.7083 8.52062C21.8854 8.35395 22.125 8.1977 22.3645 8.1352C22.802 8.02062 23.2291 8.2602 23.4375 8.64562C23.6354 9.03103 23.5833 9.49978 23.25 9.83312C22.5937 10.5206 21.9166 11.1873 21.25 11.8644C20.8229 12.3019 20.3958 12.7394 19.9583 13.1665C19.427 13.6873 18.8854 13.6977 18.3541 13.1977C17.8333 12.7081 17.3229 12.2081 16.8229 11.6977C16.3645 11.2394 16.3333 10.6248 16.7395 10.2081C17.1458 9.79145 17.7708 9.80187 18.2395 10.2394C18.5208 10.5206 18.7812 10.8331 19.0416 11.1144Z" fill="currentColor"/>
</svg>
