<svg width="16" height="23" viewBox="0 0 16 23" fill="none" xmlns="http://www.w3.org/2000/svg">
<path d="M8.00064 5C4.80548 5 2.20605 7.59944 2.20605 10.7946C2.20605 14.7598 7.39164 20.581 7.61242 20.8269C7.8198 21.0579 8.18186 21.0575 8.38886 20.8269C8.60964 20.581 13.7953 14.7598 13.7953 10.7946C13.7952 7.59944 11.1958 5 8.00064 5ZM8.00064 13.71C6.39308 13.71 5.08526 12.4021 5.08526 10.7946C5.08526 9.187 6.39311 7.87919 8.00064 7.87919C9.60817 7.87919 10.916 9.18703 10.916 10.7946C10.916 12.4022 9.60817 13.71 8.00064 13.71Z" fill="currentColor"/>
</svg>
