<svg width="36" height="36" viewBox="0 0 36 36" fill="none" xmlns="http://www.w3.org/2000/svg">
<path d="M12.4376 28.1772C10.1489 25.8885 7.86961 23.6092 5.57153 21.3111C6.83782 20.0918 8.08534 18.8442 9.38915 17.653C10.2521 16.8651 11.3214 16.5368 12.4845 16.518C13.385 16.5086 14.2854 16.5274 15.1953 16.5086C16.2834 16.4805 17.287 16.7338 18.1969 17.3247C18.6471 17.6248 19.1067 17.7186 19.6414 17.7093C21.7143 17.6811 23.7873 17.6999 25.8696 17.6999C26.7607 17.6999 27.5017 18.2533 27.7925 19.0787C28.0739 19.9042 27.8112 20.7952 27.1077 21.3487C26.7232 21.6488 26.2823 21.7801 25.8039 21.7801C23.9373 21.7801 22.0801 21.7801 20.2135 21.7801C20.1291 21.7801 20.0541 21.7801 19.9697 21.7801C19.6789 21.7801 19.4819 21.9115 19.4913 22.2116C19.5007 22.493 19.6883 22.6149 19.9603 22.6243C20.0166 22.6243 20.0728 22.6243 20.1385 22.6243C22.0051 22.6243 23.8623 22.6243 25.7289 22.6243C27.436 22.6243 28.6367 21.5081 28.768 19.8104C28.7774 19.6884 28.843 19.5383 28.9274 19.4445C30.1844 18.0751 31.4506 16.7056 32.7263 15.3362C33.3079 14.7077 34.077 14.6702 34.7336 15.2048C35.3902 15.7395 35.5215 16.518 35.0338 17.2027C33.2141 19.7166 31.4037 22.2398 29.5653 24.7348C28.4866 26.1981 27.0046 26.9109 25.1755 26.9109C21.8738 26.9109 18.5627 26.9297 15.261 26.9016C14.1541 26.8922 13.2443 27.2111 12.5408 28.0928C12.4939 28.1397 12.4564 28.1678 12.4376 28.1772Z" fill="currentColor"/>
<path d="M20.8515 6.12496C20.2231 6.75341 19.6134 7.36311 18.9287 8.05722C18.3659 7.46628 17.85 6.82845 17.2403 6.28442C15.5894 4.82116 12.9818 5.56217 12.2971 7.65388C11.875 8.94831 12.344 10.3553 13.4602 11.1338C14.5482 11.8936 16.049 11.8655 17.0996 11.0494C17.2778 10.9181 17.4373 10.7586 17.5967 10.5992C19.6228 8.58249 21.6207 6.53767 23.6749 4.53976C25.2601 2.99208 27.183 2.49494 29.3122 3.10464C31.4227 3.71433 32.764 5.14945 33.2893 7.29745C33.8802 9.66118 32.8203 12.1937 30.7567 13.4788C28.6368 14.7826 25.8698 14.6044 24.0219 12.9723C23.3466 12.3813 22.765 11.6779 22.1553 11.0306C22.7275 10.4585 23.3372 9.84877 24.0032 9.1828C24.5472 9.7456 25.0725 10.3459 25.654 10.8806C27.3424 12.4376 30.072 11.6497 30.691 9.44544C31.0568 8.13226 30.5316 6.74403 29.3966 6.0124C28.2429 5.27139 26.7327 5.37457 25.7103 6.28442C25.3351 6.62209 24.9881 6.98791 24.6316 7.34435C22.8401 9.1359 21.0673 10.9368 19.257 12.7096C16.3679 15.5424 11.5279 14.5575 9.96149 10.843C8.91094 8.33861 9.75513 5.44023 11.9875 3.90193C14.22 2.36363 17.2309 2.58874 19.2007 4.46472C19.7541 4.99937 20.2887 5.56217 20.8515 6.12496Z" fill="currentColor"/>
<path d="M0.759521 23.6184C1.70689 22.671 2.69178 21.6955 3.63915 20.7388C6.77203 23.8717 9.90491 27.0045 13.0097 30.1187C12.0717 31.0566 11.0868 32.0415 10.13 32.9983C7.04404 29.9029 3.91116 26.77 0.759521 23.6184Z" fill="currentColor"/>
</svg>
