<svg width="16" height="16" viewBox="0 0 16 16" fill="none" xmlns="http://www.w3.org/2000/svg">
<path d="M11.0215 2.92187H10.5737V2.46875C10.5737 2.20986 10.3638 2 10.1049 2C9.84603 2 9.63617 2.20986 9.63617 2.46875V2.92187H5.0371V2.46875C5.0371 2.20986 4.82724 2 4.56835 2C4.30946 2 4.0996 2.20986 4.0996 2.46875V2.92187H3.65183C2.37376 2.92187 1.33398 3.96165 1.33398 5.2397V11.6821C1.33398 12.9602 2.37376 14 3.65183 14H11.0215C12.2996 14 13.3393 12.9602 13.3393 11.6821V5.2397C13.3393 3.96165 12.2996 2.92187 11.0215 2.92187ZM3.65183 3.85937H4.0996V4.77343C4.0996 5.03232 4.30946 5.24218 4.56835 5.24218C4.82724 5.24218 5.0371 5.03232 5.0371 4.77343V3.85937H9.63619V4.77343C9.63619 5.03232 9.84605 5.24218 10.105 5.24218C10.3639 5.24218 10.5737 5.03232 10.5737 4.77343V3.85937H11.0215C11.7826 3.85937 12.4018 4.47859 12.4018 5.2397V5.68749H2.27148V5.2397C2.27148 4.47859 2.89069 3.85937 3.65183 3.85937ZM11.0215 13.0625H3.65183C2.89069 13.0625 2.27148 12.4433 2.27148 11.6821V6.62499H12.4018V11.6821C12.4018 12.4433 11.7826 13.0625 11.0215 13.0625ZM5.49805 8.46875C5.49805 8.72764 5.28819 8.9375 5.0293 8.9375H4.10743C3.84854 8.9375 3.63868 8.72764 3.63868 8.46875C3.63868 8.20986 3.84854 8 4.10743 8H5.0293C5.28816 8 5.49805 8.20986 5.49805 8.46875ZM11.0347 8.46875C11.0347 8.72764 10.8248 8.9375 10.5659 8.9375H9.64402C9.38513 8.9375 9.17527 8.72764 9.17527 8.46875C9.17527 8.20986 9.38513 8 9.64402 8H10.5659C10.8248 8 11.0347 8.20986 11.0347 8.46875ZM8.26367 8.46875C8.26367 8.72764 8.05381 8.9375 7.79492 8.9375H6.87305C6.61416 8.9375 6.4043 8.72764 6.4043 8.46875C6.4043 8.20986 6.61416 8 6.87305 8H7.79492C8.05379 8 8.26367 8.20986 8.26367 8.46875ZM5.49805 11.2344C5.49805 11.4933 5.28819 11.7031 5.0293 11.7031H4.10743C3.84854 11.7031 3.63868 11.4933 3.63868 11.2344C3.63868 10.9755 3.84854 10.7656 4.10743 10.7656H5.0293C5.28816 10.7656 5.49805 10.9755 5.49805 11.2344ZM11.0347 11.2344C11.0347 11.4933 10.8248 11.7031 10.5659 11.7031H9.64402C9.38513 11.7031 9.17527 11.4933 9.17527 11.2344C9.17527 10.9755 9.38513 10.7656 9.64402 10.7656H10.5659C10.8248 10.7656 11.0347 10.9755 11.0347 11.2344ZM8.26367 11.2344C8.26367 11.4933 8.05381 11.7031 7.79492 11.7031H6.87305C6.61416 11.7031 6.4043 11.4933 6.4043 11.2344C6.4043 10.9755 6.61416 10.7656 6.87305 10.7656H7.79492C8.05379 10.7656 8.26367 10.9755 8.26367 11.2344Z" fill="currentColor" fill-opacity="1"/>
</svg>
