<svg width="9" height="20" viewBox="0 0 9 20" fill="none" xmlns="http://www.w3.org/2000/svg">
<path d="M5.85726 15.3009C7.14547 13.0882 6.60613 10.3036 4.57475 8.68025L4.57143 8.6775L4.58021 8.69862L4.57878 8.71446C4.97457 9.72599 4.91905 10.8365 4.43285 11.7892L4.09022 12.461L3.9851 11.7188C3.91368 11.2153 3.71745 10.735 3.41515 10.3238H3.36745L3.3423 10.255C3.34586 11.0243 3.17834 11.7821 2.8497 12.497C2.41856 13.4326 2.48191 14.5114 3.01936 15.3833L3.39023 15.9853L2.72299 15.7126C1.62271 15.2628 0.743103 14.3964 0.309587 13.3355C-0.176131 12.1508 -0.0862009 10.7773 0.550429 9.66194C0.882388 9.08179 1.11493 8.46582 1.24187 7.8308L1.36597 7.2084L1.68251 7.76353C1.83366 8.02824 1.94494 8.31476 2.01399 8.61574L2.02111 8.62285L2.02847 8.67107L2.03535 8.669C2.98353 7.45015 3.55158 5.93354 3.6344 4.39786L3.65575 4L4.00076 4.21764C5.4088 5.10544 6.38664 6.52976 6.6887 8.13017L6.69558 8.163L6.69914 8.16805L6.71457 8.14693C6.99053 7.79429 7.13622 7.37485 7.13622 6.93336V6.24967L7.56261 6.7947C8.55398 8.06153 9.06224 9.63301 8.99391 11.2199C8.90991 13.0878 7.85708 14.7272 6.17736 15.6154L5.45008 16L5.85726 15.3009Z" fill="currentColor" fill-opacity="0.5"/>
</svg>
