<svg width="30" height="30" viewBox="0 0 30 30" fill="none" xmlns="http://www.w3.org/2000/svg">
<g clip-path="url(#clip0_94_180)">
<path d="M27.1875 30C19.0234 30 10.8594 30 2.69531 30C2.60937 29.9609 2.53125 29.9219 2.4375 29.8984C1.28906 29.5781 0.53125 28.8516 0.140625 27.7344C0.09375 27.5938 0.0390625 27.4531 -0.0078125 27.3125C-1.39698e-09 21.3125 -1.39698e-09 15.3125 -1.39698e-09 9.32031C0.109375 9.3125 0.210937 9.29688 0.320312 9.29688C10.1094 9.29688 19.8984 9.29688 29.6875 9.29688C29.7969 9.29688 29.8984 9.3125 30.0078 9.32031C30.0078 15.3203 30.0078 21.3125 30.0078 27.3125C29.9687 27.4063 29.9219 27.5 29.8984 27.5938C29.5781 28.7266 28.8516 29.4766 27.7344 29.8594C27.5547 29.9063 27.3672 29.9531 27.1875 30ZM4.23437 22.5C4.23437 23.1016 4.23437 23.7109 4.23437 24.3125C4.24219 24.9297 4.60156 25.2969 5.21875 25.2969C6.40625 25.3047 7.60156 25.3047 8.78906 25.2969C9.39844 25.2969 9.75781 24.9375 9.76562 24.3359C9.77344 23.1328 9.77344 21.9375 9.76562 20.7344C9.76562 20.125 9.40625 19.7734 8.79687 19.7656C7.59375 19.7578 6.39844 19.7578 5.19531 19.7656C4.59375 19.7656 4.24219 20.1328 4.23437 20.7422C4.22656 21.3281 4.23437 21.9141 4.23437 22.5ZM25.7656 22.5234C25.7656 21.9297 25.7656 21.3359 25.7656 20.7344C25.7578 20.125 25.4062 19.7656 24.8047 19.7578C23.6016 19.75 22.4062 19.75 21.2031 19.7578C20.5937 19.7578 20.2422 20.1172 20.2344 20.7266C20.2266 21.9297 20.2266 23.125 20.2344 24.3281C20.2344 24.9297 20.6016 25.2891 21.2109 25.2891C22.3984 25.2969 23.5937 25.2969 24.7812 25.2891C25.4062 25.2891 25.7578 24.9219 25.7656 24.3047C25.7734 23.7188 25.7656 23.1172 25.7656 22.5234ZM22.9922 17.7578C23.6094 17.7578 24.2187 17.7578 24.8359 17.7578C25.3828 17.75 25.7578 17.3984 25.7656 16.8438C25.7734 15.6172 25.7734 14.3828 25.7656 13.1563C25.7578 12.6016 25.3906 12.2422 24.8359 12.2422C23.6172 12.2422 22.3984 12.2422 21.1797 12.2422C20.6094 12.2422 20.2422 12.5938 20.2422 13.1719C20.2344 14.3906 20.2344 15.6094 20.2422 16.8281C20.25 17.4063 20.6094 17.75 21.1797 17.7578C21.7891 17.7578 22.3906 17.7578 22.9922 17.7578ZM6.99219 17.7578C7.60937 17.7578 8.21875 17.7578 8.83594 17.7578C9.375 17.75 9.75 17.4141 9.75781 16.875C9.77344 15.625 9.77344 14.375 9.75781 13.125C9.75 12.5859 9.375 12.2422 8.83594 12.2422C7.61719 12.2422 6.39844 12.2422 5.17969 12.2422C4.60937 12.2422 4.24219 12.6016 4.23437 13.1719C4.22656 14.3906 4.22656 15.6094 4.23437 16.8281C4.23437 17.3984 4.60937 17.75 5.17969 17.7578C5.78125 17.7578 6.38281 17.7578 6.99219 17.7578ZM12.2422 22.5234C12.2422 23.1406 12.2422 23.75 12.2422 24.3672C12.2422 24.9141 12.6016 25.2891 13.1562 25.2969C14.3828 25.3047 15.6172 25.3047 16.8437 25.2969C17.3984 25.2891 17.7578 24.9219 17.7578 24.3672C17.7656 23.1484 17.7578 21.9297 17.7578 20.7109C17.7578 20.1406 17.4062 19.7734 16.8281 19.7734C15.6094 19.7656 14.3906 19.7656 13.1719 19.7734C12.5937 19.7813 12.25 20.1406 12.2422 20.7109C12.2422 21.3125 12.2422 21.9219 12.2422 22.5234ZM14.3203 15.1016C14.0703 14.8438 13.8516 14.5938 13.6094 14.3672C13.2422 14.0234 12.7109 14.0391 12.375 14.375C12.0391 14.7188 12.0312 15.25 12.3828 15.6094C12.8047 16.0547 13.2422 16.4844 13.6875 16.9141C14.0937 17.3047 14.5859 17.2969 14.9844 16.9141C15.2344 16.6719 15.4844 16.4219 15.7266 16.1719C16.3516 15.5469 16.9844 14.9219 17.6094 14.2891C17.9609 13.9297 17.9609 13.3984 17.625 13.0547C17.2812 12.7031 16.7422 12.7031 16.3672 13.0547C16.2344 13.1797 16.1016 13.3125 15.9766 13.4453C15.4297 13.9922 14.8906 14.5391 14.3203 15.1016Z" fill="currentColor"/>
<path d="M0 7.5C0 6.52344 0 5.54688 0 4.57031C0.0390625 4.47656 0.0859375 4.38281 0.109375 4.28906C0.242188 3.79688 0.46875 3.35938 0.804688 2.98438C1.46875 2.24219 2.29688 1.88281 3.28906 1.875C4.07031 1.86719 4.84375 1.875 5.63281 1.875C5.67969 1.17969 5.42969 0.398438 6.26563 -0.0078125C6.42188 -0.0078125 6.57813 -0.0078125 6.73438 -0.0078125C7.25 0.203125 7.42188 0.59375 7.40625 1.14063C7.38281 2.27344 7.39844 3.40625 7.39844 4.53125C7.39844 5.11719 7.76563 5.50781 8.29688 5.50781C8.8125 5.5 9.15625 5.11719 9.15625 4.53125C9.15625 3.82813 9.15625 3.125 9.15625 2.42188C9.15625 2.24219 9.15625 2.0625 9.15625 1.85156C9.89063 1.85156 10.5938 1.85156 11.2969 1.85156C11.2969 1.59375 11.3125 1.35938 11.2969 1.125C11.25 0.59375 11.4531 0.21875 11.9531 1.86265e-09C12.0938 1.86265e-09 12.2266 1.86265e-09 12.3672 1.86265e-09C12.8984 0.195313 13.0781 0.578125 13.0703 1.13281C13.0469 2.27344 13.0625 3.41406 13.0625 4.55469C13.0625 5.13281 13.4141 5.51563 13.9297 5.52344C14.4531 5.53125 14.8203 5.13281 14.8203 4.54688C14.8203 3.92969 14.8203 3.32031 14.8203 2.70313C14.8203 2.4375 14.8203 2.16406 14.8203 1.875C15.5469 1.875 16.2344 1.875 16.9453 1.875C16.9453 1.61719 16.9609 1.375 16.9453 1.13281C16.9063 0.585938 17.1172 0.195313 17.6406 1.86265e-09C17.7813 1.86265e-09 17.9141 1.86265e-09 18.0547 1.86265e-09C18.5547 0.21875 18.75 0.59375 18.7109 1.14063C18.6875 1.5 18.7031 1.85938 18.7031 2.22656C18.7031 3.02344 18.6953 3.82813 18.7031 4.625C18.7109 5.14844 19.0938 5.52344 19.5859 5.52344C20.0859 5.52344 20.4453 5.14844 20.4531 4.625C20.4609 4.28125 20.4531 3.94531 20.4531 3.60156C20.4531 3.03906 20.4531 2.47656 20.4531 1.88281C21.1797 1.88281 21.875 1.88281 22.5859 1.88281C22.6406 1.1875 22.375 0.414063 23.1953 0.0078125C23.3516 0.0078125 23.5078 0.0078125 23.6641 0.0078125C24.1797 0.203125 24.3594 0.59375 24.3516 1.13281C24.3359 2.27344 24.3516 3.41406 24.3438 4.55469C24.3438 4.91406 24.4531 5.20313 24.7656 5.39844C25.3672 5.76563 26.0859 5.34375 26.1016 4.60938C26.1172 3.8125 26.1016 3.00781 26.1016 2.21094C26.1016 2.10938 26.1016 2.00781 26.1016 1.89844C26.3906 1.89844 26.6328 1.89063 26.875 1.89844C28.25 1.95313 29.4219 2.85156 29.8359 4.15625C29.8906 4.32031 29.9375 4.47656 29.9844 4.64063C29.9844 5.60156 29.9844 6.55469 29.9844 7.51563C29.8828 7.52344 29.7734 7.54688 29.6719 7.54688C19.8828 7.54688 10.0938 7.54688 0.296875 7.54688C0.210938 7.53125 0.101563 7.50781 0 7.5Z" fill="currentColor"/>
<path d="M7.98438 23.5312C7.32812 23.5312 6.67969 23.5312 6.01562 23.5312C6.01562 22.875 6.01562 22.2188 6.01562 21.5391C6.65625 21.5391 7.3125 21.5391 7.98438 21.5391C7.98438 22.1875 7.98438 22.8438 7.98438 23.5312Z" fill="currentColor"/>
<path d="M22 23.5156C22 22.8516 22 22.2109 22 21.5469C22.6641 21.5469 23.3203 21.5469 23.9922 21.5469C23.9922 22.1953 23.9922 22.8438 23.9922 23.5156C23.3438 23.5156 22.6875 23.5156 22 23.5156Z" fill="currentColor"/>
<path d="M22.0078 15.9844C22.0078 15.3203 22.0078 14.6719 22.0078 14.0078C22.6719 14.0078 23.3203 14.0078 23.9922 14.0078C23.9922 14.6562 23.9922 15.3125 23.9922 15.9844C23.3359 15.9844 22.6875 15.9844 22.0078 15.9844Z" fill="currentColor"/>
<path d="M7.99219 14.0156C7.99219 14.6875 7.99219 15.3281 7.99219 15.9922C7.32812 15.9922 6.67969 15.9922 6.00781 15.9922C6.00781 15.3359 6.00781 14.6797 6.00781 14.0156C6.66406 14.0156 7.3125 14.0156 7.99219 14.0156Z" fill="currentColor"/>
<path d="M15.9844 23.5234C15.3281 23.5234 14.6797 23.5234 14.0156 23.5234C14.0156 22.8594 14.0156 22.2031 14.0156 21.5312C14.6719 21.5312 15.3203 21.5312 15.9844 21.5312C15.9844 22.2031 15.9844 22.8594 15.9844 23.5234Z" fill="currentColor"/>
</g>
<defs>
<clipPath>
<rect width="30" height="30" fill="currentColor"/>
</clipPath>
</defs>
</svg>
