<svg width="24" height="24" viewBox="0 0 24 24" fill="none" xmlns="http://www.w3.org/2000/svg">
<path d="M10.295 4.28432C10.3885 4.19207 10.4993 4.11913 10.6209 4.06968C10.7426 4.02023 10.8729 3.99523 11.0042 3.99612C11.1356 3.997 11.2655 4.02374 11.3865 4.07482C11.5075 4.1259 11.6172 4.20032 11.7095 4.29382C11.8018 4.38732 11.8747 4.49808 11.9241 4.61976C11.9736 4.74145 11.9986 4.87169 11.9977 5.00304C11.9968 5.13438 11.9701 5.26427 11.919 5.38529C11.8679 5.5063 11.7935 5.61607 11.7 5.70832L6.33 11.0003H20C20.2652 11.0003 20.5196 11.1057 20.7071 11.2932C20.8946 11.4807 21 11.7351 21 12.0003C21 12.2655 20.8946 12.5199 20.7071 12.7074C20.5196 12.895 20.2652 13.0003 20 13.0003H6.335L11.7 18.2853C11.8794 18.4733 11.9786 18.7238 11.9765 18.9837C11.9744 19.2435 11.8712 19.4924 11.6888 19.6775C11.5065 19.8626 11.2592 19.9694 10.9994 19.9754C10.7396 19.9813 10.4877 19.8859 10.297 19.7093L3.372 12.8873C3.25408 12.771 3.16045 12.6325 3.09654 12.4797C3.03263 12.3269 2.99972 12.1629 2.99972 11.9973C2.99972 11.8317 3.03263 11.6677 3.09654 11.515C3.16045 11.3622 3.25408 11.2236 3.372 11.1073L10.295 4.28432Z" fill="currentColor"/>
</svg>
