<svg width="40" height="38" viewBox="0 0 40 38" fill="none" xmlns="http://www.w3.org/2000/svg">
<path d="M10.2173 28.7367C14.2301 27.9701 18.0619 26.7138 21.7766 25.1487C25.9065 23.4026 29.9831 21.5608 34.081 19.7508C34.3578 19.6337 34.6345 19.5166 34.9006 19.3888C34.9858 19.3462 35.0816 19.2504 35.0816 19.1759C35.0816 19.1013 34.9858 18.9949 34.9006 18.9629C34.2407 18.6755 33.5808 18.3667 32.8996 18.1218C32.2503 17.8876 31.601 17.9941 30.9837 18.3135C28.7378 19.4633 26.4813 20.5919 24.2247 21.7311C22.7665 22.4657 21.2976 23.1791 19.8607 23.9456C19.0943 24.3609 18.3812 24.3396 17.6361 23.9456C16.6569 23.4346 15.6776 22.9342 14.709 22.4231C14.592 22.3593 14.4642 22.306 14.3365 22.2421C14.3152 22.2634 14.2833 22.2847 14.262 22.3167C14.3259 22.4231 14.3897 22.5403 14.4642 22.6467C14.9113 23.3601 15.369 24.0734 15.816 24.7867C15.8479 24.8293 15.8586 24.8826 15.8799 24.9251C16.3482 25.9153 16.2631 26.1176 15.2199 26.4263C12.7825 27.161 10.3344 27.8424 7.81175 28.1724C6.20451 28.3853 4.60791 28.4705 3.01132 28.0659C0.946392 27.5442 0.318398 26.0856 1.37215 24.2437C2.0853 23.0087 3.10712 22.0505 4.1928 21.1455C5.72553 19.8573 7.39663 18.7606 9.12095 17.7386C9.16353 17.7173 9.20611 17.7066 9.32319 17.6534C9.32319 18.0154 9.34448 18.3348 9.31255 18.6542C9.3019 18.7713 9.14224 18.8991 9.02516 18.9736C7.38599 19.985 5.78939 21.0497 4.3631 22.3486C3.71382 22.9448 3.11776 23.6049 2.55363 24.2757C2.28753 24.5951 2.09594 24.9997 1.95757 25.4042C1.73405 26.0431 1.92564 26.5541 2.54299 26.8309C3.03261 27.0438 3.57545 27.2142 4.097 27.2674C6.07678 27.4804 8.03527 27.1929 9.97247 26.8203C10.0683 26.799 10.1428 26.6499 10.196 26.5435C10.2279 26.4689 10.2066 26.3625 10.2066 26.2773C10.2066 21.9653 10.2386 17.6427 10.1854 13.3308C10.1641 11.6166 11.4094 10.2006 13.304 10.2219C17.8277 10.2539 22.3514 10.2326 26.8644 10.2326C28.3759 10.2326 29.5041 11.1056 29.8128 12.5003C29.866 12.7559 29.866 13.0114 29.8767 13.2775C29.8873 14.6084 29.8767 15.9286 29.8767 17.2594C29.8767 17.3872 29.8767 17.515 29.8767 17.7066C30.0576 17.6321 30.196 17.5895 30.3131 17.5256C31.4626 16.8868 32.6228 16.8229 33.8149 17.3979C34.3046 17.6321 34.8155 17.8237 35.3157 18.0367C35.816 18.2496 36.114 18.6116 36.114 19.1652C36.114 19.7401 35.816 20.1128 35.3051 20.3257C33.6234 21.0497 31.9522 21.7737 30.2705 22.487C29.9831 22.6041 29.866 22.7425 29.866 23.0832C29.8873 26.0963 29.8767 29.1093 29.8767 32.133C29.8767 33.6023 28.9294 34.7308 27.5137 34.997C27.3008 35.0396 27.0773 35.0396 26.8538 35.0396C22.3195 35.0396 17.7851 35.0396 13.2508 35.0396C11.3881 35.0396 10.2066 33.8578 10.2066 32.0053C10.2066 31.047 10.2066 30.0782 10.2066 29.12C10.196 28.9816 10.2066 28.8645 10.2173 28.7367ZM28.3759 23.392C28.2588 23.4026 28.1949 23.392 28.1524 23.4133C27.1305 23.8498 26.1087 24.2863 25.0975 24.7441C24.9911 24.7974 24.8953 24.9997 24.8847 25.1381C24.7782 26.075 24.6824 27.0226 24.5866 27.9595C24.5228 28.5557 24.4589 29.1413 24.4163 29.7375C24.3844 30.1208 24.6718 30.5679 25.0017 30.6638C25.4275 30.7809 25.6084 30.4615 25.7788 30.174C25.8852 30.0037 25.9703 29.812 26.0449 29.6204C26.3003 28.9603 26.5558 28.2895 26.8006 27.6294C27.3221 26.2347 27.833 24.84 28.3759 23.392ZM25.4275 19.9531C25.4275 19.9211 25.4169 19.8892 25.4169 19.8573C25.3211 19.8253 25.2359 19.7934 25.1401 19.7721C23.4797 19.3782 21.8192 18.9842 20.1587 18.5796C19.4882 18.4199 18.8282 18.239 18.1577 18.1218C17.9448 18.0899 17.7106 18.2177 17.4871 18.2709C17.6042 18.4732 17.7106 18.6648 17.8277 18.8671C17.8596 18.9203 17.9342 18.9416 17.9874 18.9842C18.9134 19.6443 19.8394 20.3044 20.7761 20.9645C21.138 21.2201 21.4892 21.6353 21.8618 21.6672C22.2556 21.6885 22.6814 21.3478 23.0858 21.1455C23.8628 20.7409 24.6398 20.347 25.4275 19.9531Z" fill="currentColor"/>
<path d="M23.2992 9.3593C22.9373 9.3593 22.6499 9.3593 22.2986 9.3593C22.2986 7.62388 22.2986 5.8991 22.2986 4.14237C20.7766 4.14237 19.3077 4.14237 17.7962 4.14237C17.7962 5.88845 17.7962 7.61323 17.7962 9.34865C17.4556 9.34865 17.147 9.34865 16.7957 9.34865C16.7957 7.61323 16.7957 5.88845 16.7957 4.15302C16.5722 4.12108 16.3912 4.11043 16.2209 4.06785C15.7845 3.96138 15.4652 3.57809 15.4439 3.10964C15.4333 2.53471 15.4226 1.97043 15.4439 1.3955C15.4652 0.820575 15.891 0.394704 16.4764 0.394704C18.85 0.384057 21.2342 0.384057 23.6078 0.394704C24.2039 0.394704 24.6297 0.831222 24.6403 1.42744C24.651 1.91719 24.651 2.41759 24.6403 2.90735C24.6403 3.67392 24.2891 4.04655 23.5227 4.11043C23.4588 4.12108 23.395 4.12108 23.2992 4.13173C23.2992 5.8778 23.2992 7.60258 23.2992 9.3593Z" fill="currentColor"/>
<path d="M29.2598 9.79623C31.5482 9.35972 33.7515 8.96578 35.9974 9.23195C36.6786 9.30648 37.3811 9.49812 38.0091 9.77494C39.0841 10.2647 39.4993 11.2761 39.0735 12.3728C38.7968 13.0861 38.4029 13.7994 37.9027 14.3637C37.0831 15.2793 36.1251 16.0672 35.2097 16.8976C35.1246 16.9722 34.9224 16.9828 34.8053 16.9509C34.5392 16.8657 34.2837 16.7379 33.975 16.6102C34.2199 16.4079 34.4221 16.2482 34.6243 16.0885C35.7632 15.1835 36.8702 14.2359 37.6898 13.0116C37.8814 12.7241 38.041 12.4047 38.1475 12.0746C38.3497 11.4465 38.1368 10.9567 37.5408 10.648C36.8489 10.286 36.0719 10.2221 35.3162 10.1795C33.7089 10.105 32.123 10.3073 30.5583 10.5947C30.3242 10.6373 30.1751 10.5947 30.0155 10.4244C29.792 10.2115 29.5472 10.0411 29.2598 9.79623Z" fill="currentColor"/>
<path d="M13.8162 35.8057C14.56 35.8057 15.2614 35.8057 15.9841 35.8057C15.9841 36.3806 15.9947 36.9236 15.9734 37.4772C15.9734 37.5517 15.8353 37.6689 15.7715 37.6689C15.2083 37.6901 14.6344 37.6901 14.0712 37.6689C13.9862 37.6689 13.8374 37.5091 13.8374 37.424C13.8055 36.9023 13.8162 36.3699 13.8162 35.8057Z" fill="currentColor"/>
<path d="M24.077 35.8057C24.8103 35.8057 25.501 35.8057 26.2449 35.8057C26.2449 36.3699 26.2556 36.9236 26.2343 37.4772C26.2343 37.5517 26.0749 37.6795 25.9899 37.6795C25.4373 37.7008 24.8847 37.6795 24.3215 37.6901C24.0983 37.6901 24.0664 37.5837 24.0664 37.4027C24.0877 36.881 24.077 36.3699 24.077 35.8057Z" fill="currentColor"/>
</svg>
