<svg width="16" height="16" viewBox="0 0 16 16" fill="none" xmlns="http://www.w3.org/2000/svg">
<g clip-path="url(#clip0_58_4293)">
<path d="M7.99935 0.666504C6.54895 0.666504 5.13113 1.0966 3.92517 1.90239C2.71921 2.70819 1.77928 3.8535 1.22423 5.19349C0.669193 6.53348 0.523969 8.00797 0.806927 9.4305C1.08988 10.853 1.78832 12.1597 2.8139 13.1853C3.83949 14.2109 5.14616 14.9093 6.56869 15.1923C7.99122 15.4752 9.46571 15.33 10.8057 14.775C12.1457 14.2199 13.291 13.28 14.0968 12.074C14.9026 10.8681 15.3327 9.45023 15.3327 7.99984C15.3304 6.05562 14.557 4.19169 13.1823 2.81692C11.8075 1.44215 9.94357 0.668798 7.99935 0.666504ZM10.4707 10.4712C10.3457 10.5962 10.1761 10.6664 9.99935 10.6664C9.82257 10.6664 9.65304 10.5962 9.52802 10.4712L7.52802 8.47117C7.40298 8.34618 7.33272 8.17663 7.33268 7.99984V3.99984C7.33268 3.82303 7.40292 3.65346 7.52795 3.52843C7.65297 3.40341 7.82254 3.33317 7.99935 3.33317C8.17616 3.33317 8.34573 3.40341 8.47075 3.52843C8.59578 3.65346 8.66602 3.82303 8.66602 3.99984V7.72384L10.4707 9.5285C10.5957 9.65352 10.6659 9.82306 10.6659 9.99984C10.6659 10.1766 10.5957 10.3462 10.4707 10.4712Z" fill="currentColor"/>
</g>
<defs>
<clipPath id="clip0_58_4293">
<rect width="16" height="16" fill="currentColor"/>
</clipPath>
</defs>
</svg>
