<svg width="36" height="36" viewBox="0 0 36 36" fill="none" xmlns="http://www.w3.org/2000/svg">
<g clip-path="url(#clip0_94_216)">
<path d="M0 10.1998C0.065625 9.95606 0.140625 9.72168 0.20625 9.47793C0.515625 8.31543 1.14375 7.41543 2.27812 6.93731C3.375 6.46856 4.4625 5.99043 5.56875 5.55918C6.54375 5.18418 7.48125 5.53106 8.00625 6.44043C8.91563 7.99668 9.81562 9.55293 10.7062 11.1186C11.3156 12.1873 11.025 13.3123 9.94687 13.9123C8.94375 14.4748 8.2875 15.2623 8.11875 16.4154C7.97812 17.3342 8.19375 18.1779 8.79375 18.8811C10.0312 20.3436 11.2406 21.8529 12.5906 23.2029C13.95 24.5623 15.4406 25.8092 16.9406 27.0279C18.6094 28.3779 20.7844 27.9092 21.8625 26.0623C22.6031 24.7967 23.6438 24.5154 24.9094 25.2467C26.4 26.1092 27.8812 26.9623 29.3719 27.8248C30.3656 28.4061 30.7031 29.3342 30.2812 30.3936C29.8875 31.3779 29.4562 32.3529 29.0531 33.3373C28.3312 35.1186 26.8875 35.7654 25.1062 35.8498C23.2687 35.9342 21.5438 35.4373 19.8563 34.7623C16.7063 33.4873 13.9406 31.6123 11.3719 29.4279C8.1 26.6248 5.25 23.4467 3 19.7529C1.77187 17.7279 0.759375 15.5998 0.253125 13.2654C0.16875 12.8998 0.084375 12.5342 0.009375 12.1592C0 11.5123 0 10.8561 0 10.1998Z" fill="currentColor"/>
<path d="M36.0001 16.3875C35.9063 16.875 35.822 17.3625 35.7282 17.8406C35.1563 20.8125 33.7876 23.3531 31.6688 25.5094C31.1907 25.9969 30.497 26.0062 30.0376 25.5562C29.5688 25.0969 29.5595 24.4031 30.0657 23.8969C31.7907 22.125 32.9157 20.0437 33.4501 17.625C34.697 12.0094 31.6876 5.99999 26.4282 3.59999C21.5907 1.39687 16.172 2.31562 12.3188 5.99999C11.8501 6.44999 11.3532 6.56249 10.8845 6.32812C10.172 5.97187 10.0313 5.04374 10.622 4.46249C12.0845 3.00937 13.7626 1.84687 15.7032 1.15312C21.3563 -0.862508 26.5313 0.0281177 31.0595 3.97499C33.9657 6.50624 35.5501 9.79687 35.9345 13.6406C35.9438 13.6875 35.9813 13.7344 36.0001 13.7812C36.0001 14.6531 36.0001 15.5156 36.0001 16.3875Z" fill="currentColor"/>
<path d="M16.9501 18.0001C18.1126 18.0001 19.1907 18.0001 20.2688 18.0001C20.7751 18.0001 21.1876 18.3001 21.3563 18.7501C21.5157 19.2001 21.3938 19.7345 21.0001 20.0157C20.8032 20.1563 20.5313 20.2688 20.2969 20.2688C18.4126 20.2876 16.5282 20.297 14.6344 20.2782C13.7157 20.2688 13.2282 19.4063 13.6407 18.5813C14.1563 17.5313 14.9532 16.7063 15.8251 15.9563C16.6126 15.2907 17.4188 14.6438 18.2157 13.997C18.5907 13.6876 18.7876 13.3032 18.8251 12.8157C18.8719 12.197 18.6001 11.6532 18.0094 11.447C17.6438 11.3251 17.2313 11.2688 16.8469 11.3157C16.0782 11.4095 15.7594 11.8501 15.7969 12.6282C15.8251 13.1251 15.6469 13.5282 15.2063 13.7813C14.4469 14.2126 13.5563 13.6782 13.5094 12.7688C13.3876 10.697 14.7938 9.12195 16.8657 9.00008C18.8813 8.8782 20.5594 9.95633 20.9813 11.7095C21.3282 13.1626 21.0469 14.4938 19.9032 15.5251C19.1344 16.2282 18.3001 16.8563 17.5032 17.5313C17.3344 17.6626 17.1844 17.8032 16.9501 18.0001Z" fill="currentColor"/>
<path d="M28.7532 15.5811C29.625 15.628 30.0844 16.0311 30.1032 16.7061C30.1125 17.4093 29.6813 17.803 28.7532 17.8968C28.7532 18.2905 28.7532 18.6843 28.7532 19.078C28.7438 19.7624 28.2844 20.2593 27.6469 20.278C26.9907 20.2968 26.4938 19.8093 26.475 19.1061C26.4657 18.7124 26.475 18.3093 26.475 17.8686C26.3344 17.8686 26.2219 17.8686 26.1094 17.8686C24.8438 17.8686 23.5782 17.8593 22.3125 17.8686C21.7875 17.8686 21.375 17.6905 21.1407 17.203C20.9157 16.7249 21.0469 16.303 21.3657 15.9093C23.1375 13.7624 24.9094 11.6061 26.6813 9.45926C27.0469 9.01864 27.5157 8.87801 27.9938 9.04676C28.4813 9.22489 28.7625 9.63739 28.7625 10.228C28.7625 11.878 28.7625 13.528 28.7625 15.178C28.7532 15.3093 28.7532 15.4311 28.7532 15.5811ZM26.4469 13.3311C25.8094 14.1093 25.2188 14.8311 24.5907 15.5905C25.2563 15.5905 25.8375 15.5905 26.4469 15.5905C26.4469 14.8593 26.4469 14.1374 26.4469 13.3311Z" fill="currentColor"/>
</g>
<defs>
<clipPath>
<rect width="36" height="36" fill="currentColor"/>
</clipPath>
</defs>
</svg>
