<svg width="40" height="40" viewBox="0 0 40 40" fill="none" xmlns="http://www.w3.org/2000/svg">
<path d="M14.1082 34.4255C11.7951 32.1124 9.50287 29.8097 7.23145 27.5383C8.16919 26.6005 9.12777 25.6524 10.0864 24.6938C11.7014 25.965 13.7748 24.8605 13.7957 22.9642C15.4107 22.5682 15.5669 22.4328 16.1088 21.0158C17.8071 21.2658 18.9532 20.0989 18.8595 18.5464C19.8285 18.4422 20.5474 17.9629 20.8496 17.0043C21.1517 16.0561 20.8496 15.2434 20.1306 14.5766C21.3393 13.3679 22.5063 12.1697 23.7045 10.9923C24.1421 10.5651 24.7673 10.586 25.184 10.9923C25.6008 11.3987 25.6217 12.0551 25.1945 12.5031C24.5276 13.2012 23.8399 13.8681 23.1523 14.5557C23.0689 14.6391 22.9855 14.7225 22.9022 14.8058C22.5896 15.1288 22.5584 15.4414 22.8084 15.6915C23.0481 15.9415 23.3919 15.9103 23.6941 15.6081C24.288 15.0246 24.8715 14.4307 25.4654 13.8472C25.5383 13.7743 25.6112 13.7014 25.6842 13.6284C26.1739 13.2116 26.7782 13.2012 27.195 13.618C27.6222 14.0452 27.6222 14.6912 27.1741 15.1601C26.6323 15.7227 26.0697 16.2645 25.5175 16.8168C25.4445 16.8897 25.3716 16.9626 25.2986 17.0356C25.0382 17.3273 25.0173 17.6295 25.257 17.8691C25.4862 18.0983 25.8196 18.0983 26.0905 17.8483C26.4969 17.4628 26.8824 17.0564 27.2783 16.6605C27.5597 16.3791 27.8827 16.202 28.289 16.2645C28.6954 16.327 28.9767 16.5667 29.1226 16.9522C29.2789 17.369 29.1851 17.7545 28.8829 18.0671C28.4349 18.5359 27.966 18.9944 27.5076 19.4529C27.1846 19.7759 27.1533 20.1197 27.4138 20.3698C27.6639 20.6094 27.9764 20.5781 28.2994 20.2551C28.5287 20.0363 28.737 19.7967 28.9767 19.6091C29.4351 19.2653 30.0291 19.3382 30.3937 19.7342C30.7688 20.1405 30.8001 20.7449 30.4041 21.1512C28.5078 23.058 26.6115 24.9751 24.6631 26.8402C23.6732 27.7884 22.4229 28.3302 21.0788 28.6219C20.0056 28.8511 19.1095 29.3825 18.3385 30.164C16.9319 31.6123 15.5253 33.0189 14.1082 34.4255Z" fill="currentColor"/>
<path d="M29.9979 23.2139C30.5709 24.9122 31.4774 26.3188 32.8319 27.3816C30.498 29.7156 28.2057 31.9974 25.8614 34.3418C25.3612 33.8208 24.8298 33.2998 24.3193 32.7476C23.7879 32.1745 23.1419 31.8307 22.3917 31.6223C21.6311 31.4035 20.8705 31.1743 20.1203 30.9346C19.9119 30.8721 19.7243 30.7679 19.4951 30.6637C20.0161 30.174 20.6204 29.9031 21.2768 29.7572C23.1627 29.3509 24.7673 28.4548 26.1218 27.0899C27.3826 25.8187 28.6538 24.558 29.9979 23.2139Z" fill="currentColor"/>
<path d="M37.5721 29.9454C37.4575 30.1225 37.395 30.2788 37.2803 30.3934C34.488 33.1962 31.6851 35.999 28.8927 38.7914C28.5593 39.1248 28.2884 39.1248 27.955 38.8018C27.2986 38.1558 26.6422 37.4994 25.9962 36.843C25.6627 36.5096 25.6627 36.2283 25.9962 35.9053C28.7781 33.1129 31.5705 30.3205 34.3629 27.5385C34.7276 27.1738 34.9672 27.1738 35.3319 27.5281C35.9779 28.1637 36.6239 28.8097 37.2595 29.4661C37.3741 29.5807 37.4575 29.7578 37.5721 29.9454Z" fill="currentColor"/>
<path d="M14.3059 36.4467C14.2121 36.6134 14.16 36.7697 14.0662 36.8739C13.389 37.5616 12.7117 38.2493 12.024 38.9161C11.7219 39.2183 11.451 39.2079 11.1384 38.8953C8.32515 36.0925 5.52234 33.2792 2.71953 30.4764C2.39652 30.1534 2.40694 29.8929 2.72995 29.5699C3.38637 28.9031 4.05321 28.2363 4.72005 27.5798C5.04305 27.2672 5.30353 27.2672 5.62653 27.5902C8.42935 30.3826 11.2217 33.1855 14.0141 35.9883C14.1287 36.1133 14.2017 36.2904 14.3059 36.4467Z" fill="currentColor"/>
<path d="M32.1964 4.37572C32.1338 5.0113 32.0713 5.54269 32.0505 6.07408C32.0401 6.20953 32.1338 6.39708 32.238 6.48043C32.634 6.81385 33.0716 7.1056 33.4675 7.43902C33.5821 7.53279 33.6447 7.6995 33.728 7.83495C33.603 7.91831 33.4884 8.03292 33.3529 8.06418C32.8528 8.19963 32.3422 8.29341 31.8421 8.43928C31.6962 8.48096 31.5399 8.62683 31.4878 8.76228C31.2899 9.23115 31.1544 9.72086 30.9669 10.1897C30.9148 10.3356 30.7793 10.4398 30.6855 10.5648C30.5605 10.4711 30.4042 10.3981 30.3209 10.2731C30.0395 9.84589 29.8103 9.39786 29.5186 8.98109C29.4352 8.85605 29.2477 8.74144 29.1018 8.73102C28.56 8.68934 28.0078 8.69976 27.466 8.6685C27.3513 8.65808 27.1638 8.60599 27.143 8.53305C27.1117 8.42886 27.1638 8.25173 27.2472 8.15795C27.5806 7.74118 27.9557 7.35566 28.2787 6.92847C28.3724 6.80343 28.4245 6.57421 28.3829 6.41792C28.2683 5.93863 28.1015 5.46975 27.9765 5.00088C27.9348 4.84459 27.9765 4.66746 27.9869 4.50075C28.1536 4.52159 28.3412 4.50075 28.4975 4.56327C28.9559 4.7404 29.404 4.9592 29.8624 5.12591C29.9979 5.17801 30.2167 5.15717 30.3417 5.07382C30.7793 4.80291 31.1961 4.47991 31.6337 4.19859C31.7483 4.12565 31.9359 4.0423 32.0505 4.0944C32.1443 4.12565 32.1755 4.33404 32.1964 4.37572Z" fill="currentColor"/>
<path d="M12.0972 4.76178C11.9305 5.32443 11.7846 5.85582 11.6075 6.38721C11.5242 6.62685 11.5658 6.79356 11.7325 6.98111C12.0868 7.36663 12.4202 7.76257 12.7536 8.16892C12.8266 8.2627 12.8891 8.42941 12.8578 8.54402C12.837 8.61695 12.6494 8.66905 12.5348 8.67947C12.0034 8.71073 11.4721 8.73157 10.9407 8.72115C10.701 8.72115 10.5656 8.8045 10.451 9.01289C10.2113 9.44009 9.95082 9.86728 9.67992 10.2736C9.59657 10.3987 9.45069 10.5237 9.31524 10.5445C9.24231 10.555 9.10686 10.357 9.05476 10.2215C8.86721 9.74225 8.72134 9.24212 8.52337 8.76283C8.47127 8.62737 8.30456 8.4815 8.16911 8.43983C7.6794 8.29395 7.17927 8.2106 6.69998 8.07515C6.55411 8.03347 6.42907 7.91886 6.2832 7.8355C6.37698 7.70005 6.44991 7.52292 6.57495 7.41873C6.97088 7.09572 7.38766 6.8144 7.77317 6.48098C7.87737 6.38721 7.96072 6.21008 7.96072 6.07463C7.93988 5.55366 7.86695 5.04311 7.83569 4.52214C7.82527 4.37627 7.87737 4.1783 7.97114 4.08452C8.02324 4.03243 8.26289 4.11578 8.3775 4.19914C8.82553 4.49088 9.25273 4.81388 9.70076 5.0952C9.80495 5.15772 9.9925 5.17856 10.1071 5.13688C10.6281 4.93891 11.1386 4.70969 11.6492 4.5013C11.9618 4.37627 12.1389 4.49088 12.0972 4.76178Z" fill="currentColor"/>
<path d="M18.2136 4.96982C18.1719 4.91773 18.1198 4.80311 18.0365 4.71976C17.651 4.34466 17.255 3.9904 16.8799 3.61531C16.7966 3.53195 16.7028 3.35482 16.7236 3.26105C16.7549 3.16727 16.932 3.0735 17.0466 3.05266C17.5572 2.9693 18.0782 2.93805 18.5887 2.84427C18.745 2.81301 18.9326 2.68798 19.0159 2.54211C19.2451 2.13575 19.4118 1.69814 19.6202 1.28136C19.7036 1.11465 19.8703 0.989621 19.9953 0.84375C20.1204 1.00004 20.2767 1.13549 20.36 1.3022C20.5788 1.71898 20.7455 2.15659 20.9748 2.56295C21.0477 2.6984 21.2248 2.82343 21.3707 2.84427C21.8812 2.93805 22.4022 2.9693 22.9128 3.04224C23.0378 3.06308 23.2358 3.14643 23.2462 3.22979C23.267 3.3444 23.1837 3.52153 23.0899 3.61531C22.746 3.96956 22.3814 4.30298 22.0063 4.6364C21.8083 4.81353 21.7354 4.98024 21.8083 5.24073C21.9333 5.74086 22.0167 6.26183 22.1 6.77238C22.1209 6.88699 22.0896 7.0537 22.0063 7.11622C21.9333 7.16831 21.7562 7.14747 21.652 7.09538C21.204 6.86615 20.7455 6.63693 20.3183 6.36602C20.0578 6.19931 19.8599 6.22015 19.6098 6.37644C19.193 6.63693 18.7554 6.86615 18.3074 7.08496C18.2032 7.13706 18.0261 7.15789 17.9219 7.1058C17.8489 7.06412 17.8281 6.87657 17.8489 6.76196C17.974 6.18889 18.0886 5.61583 18.2136 4.96982Z" fill="currentColor"/>
<path d="M22.2248 10.8773C21.3496 11.7525 20.5681 12.534 19.745 13.3571C19.6616 13.2112 19.5783 13.0653 19.5054 12.9299C19.2032 12.3256 18.7135 12.0234 18.0466 11.9921C17.7653 11.9817 17.4632 11.9505 17.2027 11.8671C16.4942 11.617 16.0565 11.1169 15.9315 10.3771C15.8481 9.91869 16.067 9.66862 16.515 9.65821C17.7028 9.64779 18.8802 9.64779 20.068 9.65821C20.2347 9.65821 20.4223 9.68946 20.5577 9.77282C21.1204 10.1167 21.6517 10.4918 22.2248 10.8773Z" fill="currentColor"/>
<path d="M16.4731 19.9324C16.3376 19.8594 16.0563 19.7656 15.8687 19.5781C14.7851 18.5257 13.7223 17.4525 12.67 16.3793C12.222 15.9313 12.222 15.3061 12.6179 14.879C13.0347 14.4309 13.6807 14.3997 14.1495 14.8581C15.2436 15.9313 16.3272 17.0149 17.4004 18.109C17.7338 18.4424 17.8172 18.8592 17.6192 19.2968C17.4316 19.7031 17.0878 19.9115 16.4731 19.9324Z" fill="currentColor"/>
<path d="M19.8488 16.212C19.8071 16.7955 19.5987 17.1289 19.2028 17.306C18.7547 17.504 18.338 17.4102 17.9837 17.0664C17.3585 16.4516 16.7438 15.8369 16.1291 15.2221C15.754 14.8471 15.3684 14.472 15.0038 14.0864C14.5453 13.6176 14.5245 12.9716 14.9413 12.5444C15.358 12.1068 16.0353 12.0963 16.5146 12.5652C17.5148 13.555 18.5151 14.5449 19.4945 15.5556C19.6821 15.764 19.7654 16.0661 19.8488 16.212Z" fill="currentColor"/>
<path d="M14.9523 20.5681C14.9314 21.1515 14.7439 21.4745 14.3584 21.6725C13.9624 21.8705 13.5457 21.8601 13.2331 21.5475C12.337 20.6931 11.4618 19.8179 10.6074 18.9218C10.2219 18.5154 10.2844 17.859 10.6907 17.4839C11.1075 17.0984 11.7118 17.0776 12.139 17.4735C12.8059 18.0987 13.431 18.7551 14.077 19.4011C14.2646 19.5886 14.473 19.7553 14.6189 19.9637C14.7856 20.1825 14.8898 20.443 14.9523 20.5681Z" fill="currentColor"/>
<path d="M10.0025 20.2451C10.138 20.3181 10.4401 20.4222 10.6381 20.6098C11.2007 21.1308 11.7321 21.683 12.2739 22.2248C12.7428 22.7041 12.7532 23.3501 12.3156 23.7877C11.8988 24.2045 11.2424 24.2045 10.7735 23.746C10.2005 23.1938 9.64824 22.6312 9.09601 22.0581C8.76259 21.7142 8.70008 21.3079 8.88763 20.8703C9.07517 20.4743 9.41901 20.2868 10.0025 20.2451Z" fill="currentColor"/>
</svg>
