<svg width="40" height="40" viewBox="0 0 40 40" fill="none" xmlns="http://www.w3.org/2000/svg">
<path d="M18.4997 16.9998C17.083 16.1664 15.6663 15.4164 14.2497 14.6664C11.6663 13.2498 9.16633 11.8331 6.583 10.4164C5.66633 9.91644 5.49966 8.99977 6.24966 8.24977C6.49966 7.99977 6.833 7.74977 7.083 7.41644C7.49966 6.99977 7.91633 6.91644 8.41633 6.99977C9.99966 7.49977 11.583 7.83311 13.1663 8.16644C13.4163 8.24977 13.4997 8.16644 13.6663 7.99977C13.9997 7.58311 14.4163 7.24977 14.7497 6.91644C15.4163 6.24977 16.1663 6.24977 16.7497 6.74977C17.4163 7.33311 17.4163 8.08311 16.833 8.74977C16.833 8.74977 16.7497 8.83311 16.7497 8.91644C17.4997 9.08311 18.333 9.24977 19.083 9.41644C19.1663 9.41644 19.333 9.33311 19.333 9.24977C19.583 8.99977 19.833 8.74977 20.083 8.49977C20.6663 7.91644 21.333 7.83311 21.9163 8.24977C22.4997 8.66644 22.6663 9.33311 22.333 10.1664C22.9997 10.3331 23.6663 10.4998 24.333 10.5831C24.4163 10.5831 24.583 10.4164 24.6663 10.3331C25.7497 9.24977 26.833 8.16644 27.9163 7.08311C28.9997 5.99977 30.333 5.24977 31.9163 4.99977C33.7497 4.66644 35.2497 6.16644 34.9163 7.99977C34.6663 9.66644 33.833 10.9998 32.7497 12.0831C31.7497 13.1664 30.6663 14.1664 29.583 15.2498C29.4163 15.4164 29.333 15.5831 29.4163 15.7498C29.583 16.3331 29.6663 16.9164 29.833 17.4998C30.9163 17.0831 31.833 17.5831 31.9997 18.5831C32.083 18.9998 31.9163 19.3331 31.6663 19.5831C31.4997 19.7498 31.4163 19.9164 31.1663 20.0831C30.583 20.4998 30.4997 20.9998 30.6663 21.6664C30.833 22.1664 30.9163 22.6664 30.9997 23.1664C31.083 23.0831 31.1663 22.9998 31.2497 22.9164C31.833 22.4164 32.6663 22.4998 33.1663 23.0831C33.6663 23.5831 33.583 24.4164 33.083 24.9998C32.6663 25.4164 32.2497 25.8331 31.833 26.2498C31.7497 26.3331 31.6663 26.5831 31.7497 26.6664C32.083 28.2498 32.4163 29.8331 32.7497 31.3331C32.833 31.8331 32.7497 32.3331 32.4163 32.6664C32.083 32.9998 31.7497 33.3331 31.4163 33.6664C30.833 34.2498 29.9163 34.0831 29.4997 33.2498C28.4997 31.4164 27.4163 29.4998 26.4163 27.6664C25.2497 25.5831 24.083 23.4998 22.9163 21.3331C22.833 21.4164 22.7497 21.4164 22.7497 21.4998C20.6663 23.4164 18.583 25.2498 16.4997 27.1664C16.333 27.3331 16.2497 27.4998 16.2497 27.7498C16.1663 29.5831 16.083 31.4998 15.9163 33.3331C15.9163 33.4998 15.833 33.6664 15.7497 33.7498C15.4997 33.9998 15.2497 34.2498 14.9997 34.4998C14.4163 35.0831 13.7497 34.9164 13.4997 34.1664C12.833 32.4164 12.1663 30.6664 11.4997 28.8331C11.4163 28.5831 11.2497 28.3331 10.9163 28.2498C9.16633 27.5831 7.333 26.9164 5.583 26.2498C4.833 25.9998 4.74966 25.3331 5.24966 24.7498C5.74966 24.1664 6.333 23.8331 7.24966 23.7498C8.833 23.7498 10.4997 23.5831 12.083 23.4998C12.2497 23.4998 12.4163 23.4164 12.4997 23.3331C14.4997 21.3331 16.4997 19.1664 18.4997 16.9998Z" fill="currentColor"/>
</svg>
