<svg width="40" height="40" viewBox="0 0 40 40" fill="none" xmlns="http://www.w3.org/2000/svg">
<path d="M24.9652 12.3504C22.7667 13.4968 20.5787 14.6328 18.3906 15.7793C16.8798 16.5609 15.3794 17.353 13.8582 18.1347C13.556 18.291 13.3372 18.489 13.3997 18.8642C13.4518 19.229 13.7123 19.3541 14.0561 19.4166C16.1609 19.823 18.2656 20.2295 20.3703 20.6672C20.5787 20.7089 20.8079 20.8757 20.9538 21.0424C21.3185 21.4697 21.631 21.9283 21.9853 22.3973C20.6933 23.7834 20.0265 25.4301 19.9014 27.327C17.3487 27.327 14.8168 27.327 12.3369 27.327C12.1598 26.587 12.0452 25.847 11.816 25.1592C11.42 23.9502 10.7219 22.9184 9.7842 22.0534C8.33591 20.6985 7.33565 19.0831 6.93971 17.1341C5.88735 11.9127 9.45078 6.40981 15.1189 5.83659C19.4638 5.39886 23.6211 8.08777 24.9548 12.2253C24.9652 12.2566 24.9652 12.2774 24.9652 12.3504Z" fill="#00B7F1"/>
<path d="M15.9727 18.5097C23.6726 14.4034 31.3308 10.3283 39.0828 6.20117C37.4366 11.5477 35.8112 16.8213 34.1753 22.1053C32.0706 21.6884 29.9971 21.2819 27.8716 20.8651C27.9654 20.7191 28.0487 20.6045 28.1217 20.4899C29.9763 17.8531 31.831 15.2163 33.6856 12.5691C33.7481 12.4753 33.8211 12.3815 33.8836 12.2773C34.0503 12.0167 34.0399 11.7561 33.8419 11.5269C33.6231 11.2767 33.3418 11.2455 33.0604 11.3914C32.8208 11.5164 32.602 11.6832 32.3728 11.8291C28.6739 14.3096 24.9646 16.79 21.2657 19.2809C21.0469 19.4268 20.8489 19.4685 20.578 19.4164C19.0568 19.1141 17.5356 18.8119 15.9727 18.5097Z" fill="#00B7F1"/>
<path d="M28.0599 37.5098C27.6014 37.1138 27.1222 36.7698 26.7054 36.353C26.2157 35.8527 25.9135 35.2274 26.1636 34.5082C26.2886 34.1539 26.5282 33.8204 26.7679 33.5181C27.2993 32.8616 27.3097 32.674 26.6845 32.0799C25.9448 31.3712 25.2779 30.6208 25.0279 29.5786C24.7778 28.5155 24.8924 27.4838 25.1841 26.4624C25.2883 26.0872 25.6218 25.9204 25.976 26.0247C26.299 26.1185 26.4449 26.4207 26.3928 26.7959C26.3094 27.4629 26.174 28.1299 26.1948 28.7969C26.2157 29.6411 26.6533 30.3186 27.268 30.8918C27.5181 31.1211 27.7682 31.3608 27.9765 31.6213C28.5496 32.33 28.5704 33.1742 28.0495 33.935C27.914 34.1331 27.7369 34.3207 27.5806 34.5082C27.2993 34.8626 27.2784 35.144 27.6014 35.4775C27.8515 35.7381 28.1537 35.9465 28.4454 36.1654C28.7684 36.4051 29.1123 36.6239 29.4144 36.8845C29.7374 37.1659 29.9041 37.5202 29.7895 37.9684C29.6645 38.4165 29.3102 38.6146 28.8934 38.6771C28.3412 38.75 27.7786 38.8022 27.2263 38.8126C25.1737 38.8543 23.1628 39.1773 21.1727 39.6672C19.641 40.0424 18.1823 39.8756 16.7757 39.1565C16.2756 38.896 15.8275 38.5833 15.5566 37.9892C16.3485 38.0518 17.0883 37.8954 17.8281 38.2602C18.9117 38.7813 20.0995 38.6771 21.2352 38.3853C23.4337 37.8225 25.6634 37.6036 27.914 37.5411C27.9661 37.5202 28.0182 37.5202 28.0599 37.5098Z" fill="#00B7F1"/>
<path d="M30.7686 14.5186C30.706 14.6228 30.6435 14.727 30.5706 14.8312C29.4036 16.4988 28.2575 18.1976 27.0384 19.8338C26.4028 20.678 26.0486 21.5743 25.9027 22.5957C25.7985 23.3357 25.6214 24.0652 25.4547 24.899C24.2773 23.3461 23.1624 21.8557 22.0059 20.3237C24.9233 18.3747 27.8199 16.4258 30.7165 14.4873C30.7269 14.4873 30.7477 14.4977 30.7686 14.5186Z" fill="#00B7F1"/>
<path d="M16.0671 28.5986C17.4425 28.5986 18.8283 28.5986 20.2036 28.5986C20.6933 28.5986 21.0372 28.8696 21.1518 29.3073C21.2664 29.7242 21.0997 30.1724 20.7038 30.3704C20.5266 30.4642 20.3078 30.5163 20.1098 30.5163C17.4216 30.5267 14.723 30.5267 12.0348 30.5163C11.4201 30.5163 11.045 30.1932 10.9721 29.693C10.9095 29.1927 11.1388 28.7862 11.5868 28.6507C11.7327 28.6091 11.889 28.5986 12.0452 28.5986C13.3893 28.5986 14.7334 28.5986 16.0671 28.5986Z" fill="#00B7F1"/>
<path d="M16.0976 33.6951C14.7014 33.6951 13.3156 33.7055 11.9194 33.6951C11.4297 33.6951 11.0546 33.3616 10.9816 32.9134C10.9087 32.4653 11.1275 32.0275 11.5443 31.8712C11.7006 31.8087 11.8777 31.7878 12.034 31.7878C14.7222 31.7878 17.4208 31.7774 20.109 31.7878C20.7654 31.7878 21.203 32.2047 21.1822 32.7675C21.1614 33.3303 20.7446 33.6951 20.109 33.6951C18.7753 33.6951 17.4312 33.6951 16.0976 33.6951Z" fill="#00B7F1"/>
<path d="M18.4525 34.9873C18.4525 35.3417 18.4837 35.6752 18.4421 36.0087C18.39 36.5402 18.0044 36.8841 17.4731 36.8841C16.5457 36.8945 15.6288 36.8945 14.7015 36.8841C14.118 36.8737 13.7325 36.4881 13.7117 35.9045C13.7012 35.6022 13.7117 35.3104 13.7117 34.9873C15.2954 34.9873 16.8583 34.9873 18.4525 34.9873Z" fill="#00B7F1"/>
<path d="M24.1934 6.26386C24.3184 6.05542 24.3913 5.89909 24.4955 5.78444C24.9227 5.34672 25.3499 4.90899 25.7875 4.48168C26.1209 4.1586 26.4648 4.13775 26.7461 4.41915C27.017 4.69012 26.9962 5.04447 26.6732 5.37798C26.2356 5.82613 25.7979 6.26386 25.3499 6.70159C25.1415 6.89961 24.881 6.98298 24.6414 6.81623C24.4643 6.68074 24.3497 6.45146 24.1934 6.26386Z" fill="#00B7F1"/>
<path d="M7.95999 23.8667C7.83496 24.096 7.77244 24.2731 7.65783 24.3982C7.23063 24.8464 6.7826 25.2841 6.33457 25.7218C6.02198 26.0241 5.66772 26.0345 5.40724 25.7635C5.14676 25.4925 5.14676 25.1382 5.44892 24.8359C5.89695 24.3774 6.32415 23.9188 6.80344 23.5019C6.95973 23.3664 7.27231 23.3143 7.45986 23.3768C7.65783 23.429 7.79328 23.6791 7.95999 23.8667Z" fill="#00B7F1"/>
<path d="M5.82464 4.14844C6.04345 4.28392 6.231 4.35688 6.35603 4.48194C6.79365 4.89883 7.21042 5.32613 7.6272 5.75344C7.91894 6.05568 7.93978 6.42045 7.68971 6.69143C7.43965 6.9624 7.07497 6.9624 6.76239 6.66016C6.31435 6.22243 5.87674 5.78471 5.42871 5.33656C5.2099 5.11769 5.12655 4.84672 5.29326 4.59659C5.41829 4.40899 5.63709 4.30477 5.82464 4.14844Z" fill="#00B7F1"/>
<path d="M16.7028 1.61575C16.7028 1.93884 16.7132 2.26192 16.7028 2.59543C16.6924 2.98105 16.4527 3.22075 16.0983 3.22075C15.744 3.23118 15.4626 2.99147 15.4522 2.62669C15.4313 1.94926 15.4313 1.27182 15.4522 0.594386C15.4626 0.229613 15.7544 -0.0100953 16.0983 0.00032683C16.4527 0.0107489 16.682 0.250457 16.6924 0.636075C16.7132 0.95916 16.7028 1.28224 16.7028 1.61575Z" fill="#00B7F1"/>
<path d="M2.59446 15.7165C2.29229 15.7165 1.99013 15.7165 1.69839 15.7165C1.26077 15.7061 1.00029 15.4768 1.00029 15.1016C0.989871 14.7264 1.26077 14.4762 1.68797 14.4658C2.31313 14.4554 2.93829 14.4554 3.56346 14.4658C3.96981 14.4762 4.20946 14.7055 4.21988 15.0807C4.21988 15.4559 3.99065 15.6956 3.5843 15.7165C3.56346 15.7165 3.5322 15.7165 3.51136 15.7165C3.18836 15.7165 2.89662 15.7165 2.59446 15.7165Z" fill="#00B7F1"/>
<path d="M29.1226 22.3872C28.3514 23.1168 27.6218 23.8046 26.8923 24.4925C26.8714 24.4821 26.8506 24.4612 26.8193 24.4508C26.9757 23.6587 27.132 22.8562 27.2883 22.0225C27.8928 22.1475 28.466 22.2517 29.1226 22.3872Z" fill="#00B7F1"/>
</svg>
