<svg width="32" height="32" viewBox="0 0 32 32" fill="none" xmlns="http://www.w3.org/2000/svg">
<g clip-path="url(#clip0_94_201)">
<path d="M32 8.75C31.9667 8.8 31.925 8.84167 31.9083 8.9C31.7417 9.425 31.4 9.825 30.9417 10.125C28.8917 11.4583 26.85 12.7917 24.8 14.1167C24.6083 14.2417 24.525 14.3667 24.525 14.6083C24.5417 15.8917 24.5333 17.1667 24.5333 18.45C24.5333 18.5583 24.5333 18.675 24.5333 18.8C21.825 18.8 19.1417 18.8 16.425 18.8C16.425 17.3583 16.425 15.9167 16.425 14.4583C14.3333 14.4583 12.2667 14.4583 10.1583 14.4583C10.1583 14.575 10.1583 14.6917 10.1583 14.8167C10.1583 20.1417 10.15 25.4583 10.1667 30.7833C10.1667 31.3667 9.99167 31.7833 9.44167 32.0083C9.275 32.0083 9.10833 32.0083 8.94167 32.0083C8.4 31.7333 8.275 31.275 8.275 30.6917C8.29167 23.1083 8.28333 15.5333 8.28333 7.95C8.28333 7.825 8.28333 7.70833 8.28333 7.56667C8.13333 7.56667 8.01667 7.56667 7.90833 7.56667C5.69167 7.56667 3.475 7.55 1.25 7.575C0.666667 7.58333 0.25 7.41667 0 6.875C0 4.83333 0 2.79167 0 0.75C0.125 0.375 0.375 0.125 0.75 0C3.65 0 6.54167 0 9.44167 0C10 0.216667 10.175 0.641667 10.1667 1.225C10.15 3.36667 10.1583 5.51667 10.1583 7.65833C10.1583 8.45 10.1583 9.24167 10.1583 10.0583C10.2667 10.0583 10.3583 10.0583 10.45 10.0583C14.325 10.0583 18.2 10.0583 22.075 10.05C22.225 10.05 22.3833 10 22.5083 9.93333C24.6333 8.775 26.7583 7.60833 28.8833 6.45833C30.1083 5.79167 31.4667 6.34167 31.9 7.65833C31.925 7.73333 31.9667 7.8 32 7.86667C32 8.16667 32 8.45833 32 8.75Z" fill="currentColor"/>
<path d="M17.6249 32.0002C17.5749 31.9752 17.5249 31.9419 17.4666 31.9169C16.7999 31.6502 16.4166 31.1669 16.4082 30.4419C16.3999 27.2252 16.3999 24.0086 16.3999 20.7919C16.3999 20.7586 16.4166 20.7336 16.4249 20.6919C19.1166 20.6919 21.8082 20.6919 24.5249 20.6919C24.5249 20.8169 24.5249 20.9252 24.5249 21.0419C24.5249 24.0502 24.5249 27.0586 24.5249 30.0669C24.5249 31.2002 24.2582 31.5919 23.2416 31.9919C23.0332 31.9919 22.8249 31.9919 22.6166 31.9919C21.6499 31.6419 21.3666 30.9252 21.3832 29.9419C21.4249 27.8836 21.3999 25.8169 21.3916 23.7586C21.3916 23.6336 21.3916 23.5086 21.3749 23.3836C21.3166 22.9169 20.9332 22.5669 20.4666 22.5586C20.0082 22.5502 19.5999 22.8919 19.5332 23.3586C19.5082 23.5002 19.5082 23.6502 19.5082 23.7919C19.5082 25.9502 19.5082 28.1002 19.5082 30.2586C19.5082 30.7502 19.4249 31.2086 19.0416 31.5336C18.8082 31.7336 18.4999 31.8502 18.2249 32.0002C18.0416 32.0002 17.8332 32.0002 17.6249 32.0002Z" fill="currentColor"/>
<path d="M24.1833 5.69144C24.1833 7.7581 22.4917 9.44144 20.4333 9.44144C18.375 9.44144 16.6833 7.74977 16.6917 5.6831C16.6917 3.62477 18.3833 1.9331 20.4417 1.94144C22.5083 1.94144 24.1917 3.62477 24.1833 5.69144Z" fill="currentColor"/>
</g>
<defs>
<clipPath>
<rect width="32" height="32" fill="currentColor"/>
</clipPath>
</defs>
</svg>
