<svg width="48" height="48" viewBox="0 0 48 48" fill="none" xmlns="http://www.w3.org/2000/svg">
<g filter="url(#filter0_d_74_2520)">
<mask id="mask0_74_2520" style="mask-type:luminance" maskUnits="userSpaceOnUse" x="4" y="0" width="40" height="40">
<path d="M44 0H4V40H44V0Z" fill="currentColor"/>
</mask>
<g mask="url(#mask0_74_2520)">
<path fill-rule="evenodd" clip-rule="evenodd" d="M17.2662 37.493H23.6129V29.8662H17.2662V37.493ZM19.1756 31.1681H21.7143C21.9639 31.1681 22.1591 31.3742 22.1591 31.6128C22.1591 31.8624 21.9529 32.0576 21.7143 32.0576H19.1756C18.9261 32.0576 18.7308 31.8514 18.7308 31.6128C18.72 31.3742 18.9261 31.1681 19.1756 31.1681ZM19.1756 33.2293H21.7143C21.9639 33.2293 22.1591 33.4354 22.1591 33.6741C22.1591 33.9236 21.9529 34.119 21.7143 34.119H19.1756C18.9261 34.119 18.7308 33.9128 18.7308 33.6741C18.72 33.4354 18.9261 33.2293 19.1756 33.2293ZM19.1756 35.2907H21.7143C21.9639 35.2907 22.1591 35.4968 22.1591 35.7354C22.1591 35.985 21.9529 36.1802 21.7143 36.1802H19.1756C18.9261 36.1802 18.7308 35.9741 18.7308 35.7354C18.72 35.4859 18.9261 35.2907 19.1756 35.2907Z" fill="currentColor"/>
<path fill-rule="evenodd" clip-rule="evenodd" d="M34.876 26.0471C34.4963 25.472 33.3897 24.0183 31.4152 23.0094C30.5474 22.5754 29.712 22.3042 28.9308 22.1631L24.5045 29.5405V37.9375C24.5045 38.1869 24.2983 38.3823 24.0597 38.3823H16.8234C16.5739 38.3823 16.3786 38.1762 16.3786 37.9375V29.5405L11.9957 22.2282C11.3122 22.3802 10.5744 22.6297 9.82588 23.0094C7.84052 24.0183 6.74478 25.472 6.36506 26.0471C5.90942 26.7414 5.57309 27.4683 5.28017 28.4122C4.17358 31.938 4.01085 37.4059 4 40.0095H9.70654V32.4262C9.70654 32.1766 9.91266 31.9814 10.1513 31.9814C10.4009 31.9814 10.5962 32.1875 10.5962 32.4262V40.0095H31.1766V32.4262C31.1766 32.1766 31.3828 31.9814 31.6214 31.9814C31.8709 31.9814 32.0662 32.1875 32.0662 32.4262V40.0095H37.2086C37.1977 37.4059 37.0458 31.938 35.9502 28.4122C35.6789 27.4683 35.3426 26.7414 34.876 26.0471Z" fill="currentColor"/>
<path fill-rule="evenodd" clip-rule="evenodd" d="M23.81 28.9657L27.9759 22.0225C27.5745 21.9899 27.2057 21.9791 26.8911 21.9899L20.7722 27.4469C20.5986 27.5988 20.3383 27.5988 20.1646 27.436L14.3605 21.9899C13.9483 21.9791 13.4709 22.0008 12.9393 22.0659L17.0836 28.9766H23.81V28.9657Z" fill="currentColor"/>
<path fill-rule="evenodd" clip-rule="evenodd" d="M23.0372 20.1887C22.6792 20.3515 22.2561 20.5141 21.7571 20.6335C21.4317 20.7095 20.9109 20.7963 20.26 20.7963C19.8043 20.7963 19.2944 20.7529 18.7411 20.6335C18.4807 20.5794 17.9925 20.4491 17.3958 20.1778C17.4175 20.3189 17.4284 20.4817 17.4175 20.6769C17.3958 21.6858 17.0378 22.5863 16.7991 23.0637L20.4552 26.5027L23.8618 23.4651C23.4712 22.7707 23.0372 21.7618 23.0155 20.6227C23.0155 20.46 23.0265 20.3189 23.0372 20.1887ZM27.1815 8.60208C26.9429 8.13557 26.5089 7.26767 25.6085 6.12853C25.2288 5.65117 25.0769 5.48843 24.9685 5.37994C24.8708 5.28231 24.5995 5.03279 24.2198 4.76156L24.1981 4.75071C24.1872 4.73987 24.1765 4.73987 24.1655 4.729C23.9269 5.05448 23.6448 5.31485 23.3085 5.52099C22.5166 6.02003 21.7137 5.99834 21.0737 5.97663H21.0303C21.0086 5.97663 18.9364 5.93325 16.7232 6.08513C15.1176 6.19362 14.6294 6.39974 14.2713 6.59502C13.9459 6.77947 13.3275 7.11577 13.0346 7.76671C12.9044 8.04879 12.8718 8.32 12.8393 8.52614C12.8284 8.62377 12.8176 8.71057 12.7959 8.78651C12.7417 8.97094 12.6549 9.06859 12.5572 9.12283C11.57 10.0124 11.6134 11.0214 11.7327 11.5421C11.9388 12.4751 12.6549 13.278 13.5011 13.5275C13.6747 13.5817 13.794 13.7228 13.8157 13.8964C13.8699 14.2978 14.0001 14.9487 14.1846 15.4695C14.7595 17.086 15.8227 18.0732 16.2567 18.4312C17.3741 19.3426 18.4916 19.6572 18.9147 19.7547C20.1406 20.026 21.1495 19.8415 21.5292 19.7547C22.56 19.5161 23.2543 19.0387 23.5472 18.8326C23.7641 18.6807 24.3175 18.2684 24.8815 17.6067C25.7061 16.6303 26.292 15.361 26.6174 13.8204C26.6608 13.636 26.8018 13.5058 26.9863 13.4733C27.7891 13.3431 28.5703 12.1714 28.6571 10.978C28.6895 10.4573 28.6137 9.53508 27.6806 9.20962C27.5829 9.18793 27.4961 9.14453 27.4311 9.06859C27.366 8.97094 27.3009 8.84076 27.1815 8.60208Z" fill="currentColor"/>
<path fill-rule="evenodd" clip-rule="evenodd" d="M12.3107 7.25703C12.7447 6.43251 13.4824 6.02026 13.8513 5.82497C14.4046 5.5212 15.0555 5.31508 16.672 5.20659C18.9286 5.05471 21.0441 5.09809 21.0658 5.09809H21.1092C21.6843 5.10894 22.2809 5.13065 22.8451 4.77263C23.138 4.5882 23.3875 4.32782 23.5937 4.00236C23.6695 3.87217 23.7889 3.78537 23.9407 3.75283C23.9841 3.74199 24.0275 3.74199 24.0601 3.74199C24.288 3.74199 24.5049 3.87217 24.722 4.02405L24.7437 4.03491C25.1667 4.32782 25.4704 4.60989 25.6115 4.74008C25.7634 4.89197 25.9478 5.08725 26.3275 5.57545C27.0654 6.50846 27.5101 7.27874 27.7921 7.79948C27.9658 7.35468 28.1394 6.82308 28.1718 6.60609C28.2478 6.0528 28.2804 5.80328 28.2152 5.5212C28.1067 5.04385 27.8464 4.71839 27.662 4.5014C27.4341 4.23019 27.228 4.06745 26.8158 3.76368C26.512 3.53585 26.3384 3.42737 26.1974 3.35142C26.0238 3.25379 25.872 3.15614 25.6658 2.93916C25.3186 2.58114 25.1341 2.23399 24.8738 1.73492C24.7654 1.5288 24.7003 1.37692 24.646 1.25758C24.57 1.07315 24.5375 1.00805 24.4398 0.899563C24.3314 0.780225 24.1578 0.617491 23.7455 0.454757C22.9969 0.150987 22.2484 0.118441 21.5432 0.140138C20.556 0.161836 19.84 0.194383 18.7767 0.411362C17.4423 0.682585 15.6305 1.0623 14.1117 2.52691C13.2329 3.38397 12.8207 4.25188 12.7122 4.5014C12.506 4.9896 12.1806 5.99856 12.3216 7.21363C12.3107 7.23534 12.3107 7.24619 12.3107 7.25703ZM34.8874 3.26463V0.62834C34.8874 0.378814 34.6812 0.183534 34.4426 0.183534C34.1931 0.183534 33.9978 0.389663 33.9978 0.62834V20.3625C33.9978 20.6121 34.2038 20.8073 34.4426 20.8073C34.6921 20.8073 34.8874 20.6012 34.8874 20.3625V10.2839H44.0004L34.8874 3.26463Z" fill="currentColor"/>
</g>
</g>
<defs>
<filter id="filter0_d_74_2520" x="0" y="0" width="48" height="48" filterUnits="userSpaceOnUse" color-interpolation-filters="sRGB">
<feFlood flood-opacity="0" result="BackgroundImageFix"/>
<feColorMatrix in="SourceAlpha" type="matrix" values="0 0 0 0 0 0 0 0 0 0 0 0 0 0 0 0 0 0 127 0" result="hardAlpha"/>
<feOffset dy="4"/>
<feGaussianBlur stdDeviation="2"/>
<feComposite in2="hardAlpha" operator="out"/>
<feColorMatrix type="matrix" values="0 0 0 0 0 0 0 0 0 0 0 0 0 0 0 0 0 0 0.25 0"/>
<feBlend mode="normal" in2="BackgroundImageFix" result="effect1_dropShadow_74_2520"/>
<feBlend mode="normal" in="SourceGraphic" in2="effect1_dropShadow_74_2520" result="shape"/>
</filter>
</defs>
</svg>
