<svg width="25" height="24" viewBox="0 0 25 24" fill="none" xmlns="http://www.w3.org/2000/svg">
<path d="M17.6832 12.5555C17.6738 10.957 18.398 9.75234 19.8605 8.86406C19.0426 7.69219 17.8051 7.04766 16.1738 6.92344C14.6293 6.80156 12.9395 7.82344 12.3207 7.82344C11.6668 7.82344 10.1715 6.96563 8.99492 6.96563C6.5668 7.00313 3.98633 8.90156 3.98633 12.7641C3.98633 13.9055 4.19492 15.0844 4.61211 16.2984C5.16992 17.8969 7.18086 21.8133 9.27852 21.75C10.3754 21.7242 11.1512 20.9719 12.5785 20.9719C13.9637 20.9719 14.6809 21.75 15.9043 21.75C18.0207 21.7195 19.8395 18.1594 20.3691 16.5563C17.5309 15.218 17.6832 12.6375 17.6832 12.5555ZM15.2199 5.40703C16.4082 3.99609 16.3004 2.71172 16.2652 2.25C15.2152 2.31094 14.0012 2.96484 13.3098 3.76875C12.548 4.63125 12.1004 5.69766 12.1965 6.9C13.3309 6.98672 14.3668 6.40313 15.2199 5.40703Z" fill="black"/>
</svg>
