<svg width="16" height="16" viewBox="0 0 16 16" fill="none" xmlns="http://www.w3.org/2000/svg">
<path d="M12.6641 10H15.3307V2H12.6641M9.9974 2H3.9974C3.44406 2 2.97073 2.33333 2.77073 2.81333L0.757396 7.51333C0.697396 7.66667 0.664062 7.82667 0.664062 8V9.33333C0.664063 9.68695 0.804538 10.0261 1.05459 10.2761C1.30464 10.5262 1.64377 10.6667 1.9974 10.6667H6.20406L5.57073 13.7133C5.5574 13.78 5.55073 13.8467 5.55073 13.92C5.55073 14.2 5.66406 14.4467 5.84406 14.6267L6.55073 15.3333L10.9374 10.94C11.1841 10.7 11.3307 10.3667 11.3307 10V3.33333C11.3307 2.97971 11.1903 2.64057 10.9402 2.39052C10.6902 2.14048 10.351 2 9.9974 2Z" fill="currentColor"/>
</svg>
