<svg width="16" height="16" viewBox="0 0 16 16" fill="none" xmlns="http://www.w3.org/2000/svg">
<path d="M15.3307 6.66406C15.3307 6.31044 15.1903 5.9713 14.9402 5.72125C14.6902 5.4712 14.351 5.33073 13.9974 5.33073H9.78406L10.4241 2.28406C10.4374 2.2174 10.4441 2.14406 10.4441 2.07073C10.4441 1.7974 10.3307 1.54406 10.1507 1.36406L9.44406 0.664062L5.0574 5.05073C4.81073 5.2974 4.66406 5.63073 4.66406 5.9974V12.6641C4.66406 13.0177 4.80454 13.3568 5.05459 13.6069C5.30464 13.8569 5.64377 13.9974 5.9974 13.9974H11.9974C12.5507 13.9974 13.0241 13.6641 13.2241 13.1841L15.2374 8.48406C15.2974 8.33073 15.3307 8.17073 15.3307 7.9974V6.66406ZM0.664062 13.9974H3.33073V5.9974H0.664062V13.9974Z" fill="currentColor"/>
</svg>
