<svg width="19" height="19" viewBox="0 0 19 19" fill="none" xmlns="http://www.w3.org/2000/svg">
<path d="M2.75 9.375L4.25 10.125" stroke="#030F12" stroke-width="1.125" stroke-linecap="round" stroke-linejoin="round"/>
<path d="M17 9.75L15.5 10.125" stroke="#030F12" stroke-width="1.125" stroke-linecap="round" stroke-linejoin="round"/>
<path d="M6.875 13.5L7.05925 13.0393C7.33326 12.3544 7.47026 12.0119 7.75596 11.8184C8.04165 11.625 8.41055 11.625 9.14833 11.625H10.6017C11.3394 11.625 11.7084 11.625 11.9941 11.8184C12.2797 12.0119 12.4168 12.3544 12.6907 13.0393L12.875 13.5" stroke="#030F12" stroke-width="1.125" stroke-linecap="round" stroke-linejoin="round"/>
<path d="M2.375 13.125V15.2865C2.375 15.5705 2.55556 15.8302 2.84141 15.9573C3.02689 16.0397 3.20403 16.125 3.41793 16.125H4.70706C4.92096 16.125 5.09811 16.0397 5.28359 15.9573C5.56944 15.8302 5.75 15.5705 5.75 15.2865V13.875" stroke="#030F12" stroke-width="1.125" stroke-linecap="round" stroke-linejoin="round"/>
<path d="M14 13.875V15.2865C14 15.5705 14.1806 15.8302 14.4664 15.9573C14.6519 16.0397 14.8291 16.125 15.043 16.125H16.332C16.5459 16.125 16.7231 16.0397 16.9086 15.9573C17.1944 15.8302 17.375 15.5705 17.375 15.2865V13.125" stroke="#030F12" stroke-width="1.125" stroke-linecap="round" stroke-linejoin="round"/>
<path d="M15.875 6.75L16.625 6.375" stroke="#030F12" stroke-width="1.125" stroke-linecap="round" stroke-linejoin="round"/>
<path d="M3.875 6.75L3.125 6.375" stroke="#030F12" stroke-width="1.125" stroke-linecap="round" stroke-linejoin="round"/>
<path d="M4.25 7.125L5.06623 4.67632C5.39624 3.68629 5.56124 3.19127 5.95407 2.90814C6.3469 2.625 6.86869 2.625 7.91228 2.625H11.8377C12.8813 2.625 13.4031 2.625 13.7959 2.90814C14.1888 3.19127 14.3538 3.68629 14.6838 4.67632L15.5 7.125" stroke="#030F12" stroke-width="1.125" stroke-linejoin="round"/>
<path d="M4.25 7.125H15.5C16.2179 7.88512 17.375 8.94368 17.375 10.1247V12.7276C17.375 13.1555 17.0904 13.5156 16.7126 13.5656L14.375 13.875H5.375L3.03737 13.5656C2.65966 13.5156 2.375 13.1555 2.375 12.7276V10.1247C2.375 8.94368 3.53209 7.88512 4.25 7.125Z" stroke="#030F12" stroke-width="1.125" stroke-linejoin="round"/>
</svg>
