<svg width="21" height="21" viewBox="0 0 21 21" fill="none" xmlns="http://www.w3.org/2000/svg">
<path d="M16.8572 18.2388C15.106 18.2388 13.3758 17.8572 11.6666 17.094C9.95744 16.3307 8.40237 15.2483 7.0014 13.8468C5.60044 12.4453 4.51833 10.8902 3.75508 9.18159C2.99184 7.47297 2.60994 5.74278 2.60938 3.99101C2.60938 3.73883 2.69343 3.52869 2.86155 3.36057C3.02966 3.19246 3.23981 3.1084 3.49198 3.1084H6.89633C7.09247 3.1084 7.26759 3.17508 7.42169 3.30846C7.5758 3.44183 7.66686 3.5993 7.69488 3.78086L8.24126 6.72289C8.26928 6.94705 8.26227 7.13618 8.22024 7.29028C8.17822 7.44439 8.10116 7.57748 7.98908 7.68956L5.95068 9.74898C6.23087 10.2673 6.56346 10.768 6.94845 11.2511C7.33343 11.7341 7.75737 12.2001 8.22024 12.649C8.65454 13.0833 9.10986 13.4862 9.58619 13.8577C10.0625 14.2293 10.5669 14.5689 11.0992 14.8765L13.0746 12.9012C13.2007 12.7751 13.3654 12.6806 13.5689 12.6179C13.7723 12.5551 13.9718 12.5375 14.1673 12.5649L17.0673 13.1533C17.2635 13.2094 17.4246 13.3111 17.5507 13.4585C17.6768 13.6058 17.7398 13.7703 17.7398 13.9519V17.3562C17.7398 17.6084 17.6558 17.8185 17.4876 17.9867C17.3195 18.1548 17.1094 18.2388 16.8572 18.2388Z" fill="currentColor"/>
</svg>
