<svg width="36" height="36" viewBox="0 0 36 36" fill="none" xmlns="http://www.w3.org/2000/svg">
<path d="M10.5 22.5H13.5C13.5 24.12 15.555 25.5 18 25.5C20.445 25.5 22.5 24.12 22.5 22.5C22.5 20.85 20.94 20.25 17.64 19.455C14.46 18.66 10.5 17.67 10.5 13.5C10.5 10.815 12.705 8.535 15.75 7.77V4.5H20.25V7.77C23.295 8.535 25.5 10.815 25.5 13.5H22.5C22.5 11.88 20.445 10.5 18 10.5C15.555 10.5 13.5 11.88 13.5 13.5C13.5 15.15 15.06 15.75 18.36 16.545C21.54 17.34 25.5 18.33 25.5 22.5C25.5 25.185 23.295 27.465 20.25 28.23V31.5H15.75V28.23C12.705 27.465 10.5 25.185 10.5 22.5Z" fill="currentColor"/>
</svg>
