<svg width="16" height="17" viewBox="0 0 16 17" fill="none" xmlns="http://www.w3.org/2000/svg">
<g clip-path="url(#clip0_58_4146)">
<mask style="mask-type:luminance" maskUnits="userSpaceOnUse" x="0" y="0" width="16" height="17">
<path d="M16 0.5H0V16.5H16V0.5Z" fill="currentColor"/>
</mask>
<g mask="url(#mask0_58_4146)">
<path d="M8 14.5C11.3137 14.5 14 11.8137 14 8.5C14 5.18629 11.3137 2.5 8 2.5C4.68629 2.5 2 5.18629 2 8.5C2 9.49175 2.24062 10.4273 2.66667 11.2515L2 14.5L5.24853 13.8333C6.07269 14.2594 7.00825 14.5 8 14.5Z" stroke="currentColor" stroke-opacity="1" stroke-width="1.5" stroke-linecap="round" stroke-linejoin="round"/>
<path d="M5.00667 8.5H5V8.50667H5.00667V8.5Z" stroke="currentColor" stroke-opacity="1" stroke-width="2.25" stroke-linejoin="round"/>
<path d="M8.00667 8.5H8V8.50667H8.00667V8.5Z" stroke="currentColor" stroke-opacity="1" stroke-width="2.25" stroke-linejoin="round"/>
<path d="M11.0067 8.5H11V8.50667H11.0067V8.5Z" stroke="currentColor" stroke-opacity="1" stroke-width="2.25" stroke-linejoin="round"/>
</g>
</g>
<defs>
<clipPath>
<rect width="16" height="16" fill="currentColor" transform="translate(0 0.5)"/>
</clipPath>
</defs>
</svg>
