<svg width="40" height="40" viewBox="0 0 40 40" fill="none" xmlns="http://www.w3.org/2000/svg">
<path d="M6.5 5.33333C6.5 6.66667 6.66667 7.83333 7.66667 8.66667C8.33333 9.33333 9.16667 9.66667 10 9.66667C12.3333 9.83333 14.3333 8.16667 14 5.33333C14.3333 5.33333 14.6667 5.33333 14.8333 5.33333C15 5.83333 15 6.33333 15 6.83333C15.3333 8.33333 16.6667 9.66667 18.1667 9.66667C18.8333 9.66667 19.5 9.66667 20 9.5C21.3333 9 22.3333 7.83333 22.3333 6.33333C22.3333 6 22.3333 5.66667 22.3333 5.33333C22.6667 5.33333 23 5.33333 23.1667 5.33333C23.1667 5.83333 23.1667 6.33333 23.3333 6.83333C23.6667 8.33333 25 9.66667 26.5 9.66667C27 9.66667 27.6667 9.66667 28.1667 9.5C29.6667 9.16667 30.6667 7.83333 30.6667 6.33333C30.6667 6 30.6667 5.66667 30.6667 5.33333C31.3333 5.33333 31.8333 5.33333 32.5 5.33333C33.6667 5.5 34.5 6.33333 34.5 7.5C34.5 9.16667 34.5 10.6667 34.5 12.3333C34.5 15.6667 34.5 19.1667 34.5 22.5C34.5 22.6667 34.5 22.8333 34.5 22.8333C33.8333 22.5 33.1667 22.1667 32.3333 21.8333C31.6667 21.6667 30.8333 21.5 30 21.3333C30 21.3333 30 21.1667 30 21C30 19 30 17 30 15C30 14.1667 29.6667 13.8333 28.8333 13.8333C21.8333 13.8333 14.8333 13.8333 8 13.8333C7.16667 13.8333 6.83333 14.1667 6.83333 15C6.83333 19.5 6.83333 23.8333 6.83333 28.3333C6.83333 29.1667 7.16667 29.5 8 29.5C12.3333 29.5 16.5 29.5 20.8333 29.5C21 29.5 21.1667 29.5 21.3333 29.5C21.3333 31.3333 21.8333 33 22.8333 34.5C22.6667 34.5 22.5 34.5 22.3333 34.5C16.5 34.5 10.8333 34.5 5 34.5C3.5 34.5 2.5 33.6667 2.5 32C2.5 23.8333 2.5 15.6667 2.5 7.5C2.5 6 3.33333 5 5 5C5.66667 5.33333 6 5.33333 6.5 5.33333Z" fill="currentColor"/>
<path d="M22.8334 29.9997C22.8334 25.9997 26 22.833 30 22.833C34 22.833 37.1667 25.9997 37.1667 29.9997C37.1667 33.9997 34 37.1663 30 37.1663C26 37.1663 22.8334 33.9997 22.8334 29.9997ZM29 30.6663C28.6667 30.333 28.5 30.1663 28.1667 29.9997C27.6667 29.6663 27.1667 29.6663 26.8334 29.9997C26.5 30.333 26.5 30.9997 27 31.333C27.5 31.833 28 32.1663 28.3334 32.6663C29 33.1663 29.5 33.1663 30 32.4997C30.6667 31.6663 31.3334 30.833 32 29.9997C32.5 29.4997 32.8334 28.9997 33.3334 28.4997C33.8334 27.833 33.5 27.1663 32.6667 26.9997C32.1667 26.9997 32 27.1663 31.6667 27.4997C30.8334 28.4997 29.8334 29.6663 29 30.6663Z" fill="currentColor"/>
<path d="M9 16C10.8333 16 12.5 16 14.3333 16C14.3333 17.6667 14.3333 19.3333 14.3333 21C12.6667 21 10.8333 21 9 21C9 19.3333 9 17.6667 9 16Z" fill="currentColor"/>
<path d="M23.1666 16C24.8333 16 26.6666 16 28.5 16C28.5 17.6667 28.5 19.3333 28.5 21C26.8333 21 25 21 23.1666 21C23.1666 19.3333 23.1666 17.6667 23.1666 16Z" fill="currentColor"/>
<path d="M14.3333 22.833C14.3333 24.4997 14.3333 26.1663 14.3333 27.833C12.5 27.833 10.8333 27.833 9 27.833C9 26.1663 9 24.4997 9 22.833C10.8333 22.833 12.5 22.833 14.3333 22.833Z" fill="currentColor"/>
<path d="M21.1666 16C21.1666 17.6667 21.1666 19.3333 21.1666 21C19.5 21 17.8333 21 16.1666 21C16.1666 19.3333 16.1666 17.6667 16.1666 16C17.8333 16 19.5 16 21.1666 16Z" fill="currentColor"/>
<path d="M16.3334 22.833C18 22.833 19.6667 22.833 21.3334 22.833C21.3334 24.4997 21.3334 26.1663 21.3334 27.833C19.6667 27.833 18 27.833 16.3334 27.833C16.3334 26.1663 16.3334 24.4997 16.3334 22.833Z" fill="currentColor"/>
<path d="M7.83337 5.49967C7.83337 5.16634 7.83337 4.83301 8.00004 4.49967C8.16671 3.49967 9.00004 2.83301 10 2.83301C10.3334 2.83301 10.8334 2.83301 11.1667 2.83301C12.1667 2.99967 12.8334 3.83301 12.8334 4.99967C12.8334 5.66634 12.8334 6.16634 12.8334 6.83301C12.5 7.66634 11.6667 8.33301 10.6667 8.49967C10.3334 8.49967 10 8.49967 9.66671 8.49967C8.66671 8.16634 7.83337 7.33301 7.83337 6.16634C7.83337 5.99967 7.83337 5.83301 7.83337 5.49967Z" fill="currentColor"/>
<path d="M21.3333 5.66618C21.3333 5.99951 21.3333 6.33284 21.1666 6.83284C21.1666 6.99951 21.1666 6.99951 21 7.16618C20.5 8.33285 19.5 8.83284 18 8.49951C16.8333 8.33284 16.1666 7.49951 16.1666 6.33284C16.1666 5.83284 16.1666 5.16618 16.1666 4.66618C16.3333 3.83285 16.8333 3.33285 17.6666 2.99951C18.1666 2.83285 18.6666 2.83285 19.1666 2.99951C20.1666 3.16618 21 3.99951 21 5.16618C21.1666 5.16618 21.1666 5.33285 21.3333 5.66618Z" fill="white"/>
<path d="M29.6666 5.66651C29.8333 7.99984 28.1666 8.83317 26.1666 8.33317C25.3333 8.16651 24.8333 7.66651 24.6666 6.83317C24.5 5.99984 24.5 5.33317 24.6666 4.49984C24.8333 3.49984 25.6666 2.83317 26.6666 2.83317C28.8333 2.66651 29.8333 3.83317 29.6666 5.66651Z" fill="currentColor"/>
<path d="M23.1666 24.9997C23.1666 24.333 23.1666 23.4997 23.1666 22.833C24 22.833 24.6666 22.833 25.5 22.833C25 23.1663 24.6666 23.4997 24.1666 23.833C23.8333 24.1663 23.5 24.6663 23.1666 24.9997Z" fill="currentColor"/>
</svg>
