<svg width="20" height="14" viewBox="0 0 20 14" fill="none" xmlns="http://www.w3.org/2000/svg">
<path d="M8.40373 10.0203L13.2595 7.26957L8.40373 4.51889V10.0203ZM19.2193 2.84098C19.3409 3.27192 19.4251 3.84956 19.4813 4.58308C19.5468 5.31659 19.5748 5.94925 19.5748 6.49939L19.631 7.26957C19.631 9.27757 19.4813 10.7538 19.2193 11.6981C18.9854 12.5234 18.4427 13.0552 17.6007 13.2844C17.161 13.4036 16.3564 13.4861 15.1214 13.5411C13.9051 13.6053 12.7917 13.6328 11.7626 13.6328L10.2749 13.6878C6.35476 13.6878 3.91282 13.5411 2.94915 13.2844C2.1071 13.0552 1.56445 12.5234 1.33055 11.6981C1.20892 11.2672 1.12472 10.6896 1.06859 9.95607C1.00309 9.22256 0.975023 8.5899 0.975023 8.03977L0.918884 7.26957C0.918884 5.26158 1.06859 3.78538 1.33055 2.84098C1.56445 2.01577 2.1071 1.48398 2.94915 1.25475C3.38888 1.13556 4.19351 1.05303 5.42851 0.998021C6.6448 0.933835 7.75817 0.906332 8.78733 0.906332L10.2749 0.851318C14.1951 0.851318 16.637 0.998021 17.6007 1.25475C18.4427 1.48398 18.9854 2.01577 19.2193 2.84098Z" fill="#00B7F1"/>
</svg>
