<svg width="12" height="14" viewBox="0 0 12 14" fill="none" xmlns="http://www.w3.org/2000/svg">
<path d="M0.545702 5.0734C0.545702 4.48384 0.648761 3.92687 0.851848 3.40702C1.04588 2.90211 1.33416 2.4387 1.70133 2.04149C2.06774 1.6495 2.48705 1.31053 2.94713 1.0344C3.41916 0.748827 3.9302 0.533384 4.46421 0.394826C5.00468 0.252908 5.56119 0.181338 6.11998 0.181888C6.9831 0.181888 7.78635 0.364514 8.53125 0.728252C9.26643 1.08536 9.89219 1.63338 10.3431 2.31506C10.8084 3.00843 11.0395 3.79274 11.0395 4.66722C11.0395 5.19161 10.988 5.70463 10.8827 6.20629C10.7792 6.70766 10.6148 7.1945 10.3931 7.65593C10.1818 8.10261 9.90551 8.51554 9.57321 8.88127C9.23924 9.24119 8.83478 9.52853 8.385 9.72544C7.89669 9.93945 7.36845 10.0472 6.83533 10.0414C6.46477 10.0414 6.09497 9.9543 5.72972 9.77925C5.36446 9.60496 5.10227 9.3655 4.94465 9.05859C4.88933 9.27153 4.81355 9.57919 4.71277 9.98158C4.61577 10.3832 4.5506 10.6424 4.52181 10.7598C4.4915 10.8765 4.43542 11.0713 4.35358 11.341C4.29808 11.5406 4.22687 11.7355 4.14064 11.9238L3.87996 12.4345C3.76723 12.6537 3.6412 12.8658 3.50258 13.0696C3.36542 13.2681 3.19568 13.5053 2.99335 13.7781L2.88044 13.8182L2.80542 13.7364C2.72434 12.8778 2.68266 12.3641 2.68266 12.1943C2.68266 11.6919 2.74252 11.1281 2.86074 10.5022C2.97668 9.877 3.16006 9.09118 3.40635 8.14622C3.65263 7.20202 3.79357 6.64656 3.83146 6.48212C3.65793 6.12823 3.57003 5.66599 3.57003 5.09765C3.57003 4.64373 3.71173 4.21861 3.9959 3.8185C4.28083 3.41991 4.64078 3.22061 5.07726 3.22061C5.41145 3.22061 5.67061 3.33125 5.85627 3.55328C6.04268 3.77455 6.13362 4.05342 6.13362 4.39366C6.13362 4.75437 6.01389 5.27648 5.77291 5.95925C5.53194 6.64277 5.4122 7.15276 5.4122 7.49149C5.4122 7.83477 5.53497 8.12197 5.78049 8.34703C6.02279 8.57221 6.34322 8.69424 6.67392 8.68728C6.974 8.68728 7.25211 8.61908 7.51051 8.48192C7.76488 8.34878 7.98506 8.15869 8.15387 7.92646C8.52157 7.422 8.78369 6.84853 8.92454 6.24039C8.99729 5.9206 9.05337 5.61673 9.08823 5.33104C9.12536 5.04384 9.14127 4.77256 9.14127 4.51491C9.14127 3.56995 8.84119 2.83338 8.24481 2.30596C7.6454 1.77854 6.86488 1.51635 5.90477 1.51635C4.8128 1.51635 3.89966 1.86948 3.1684 2.57801C2.43638 3.28426 2.06809 4.18224 2.06809 5.27118C2.06809 5.5114 2.10447 5.74328 2.17343 5.96758C2.24087 6.19113 2.31438 6.36921 2.39394 6.50106C2.47275 6.63065 2.54702 6.7572 2.61446 6.8739C2.68266 6.99059 2.71828 7.07395 2.71828 7.12397C2.71828 7.27704 2.67811 7.47634 2.59703 7.72262C2.51292 7.9689 2.41365 8.09166 2.29391 8.09166C2.28255 8.09166 2.23557 8.08332 2.15372 8.06589C1.87028 7.98127 1.61431 7.82309 1.41185 7.60743C1.19697 7.38393 1.02739 7.12094 0.912471 6.83298C0.797877 6.54604 0.708623 6.24963 0.64573 5.94712C0.577781 5.66089 0.544201 5.36758 0.545702 5.0734Z" fill="currentColor"/>
</svg>
