<svg width="40" height="40" viewBox="0 0 40 40" fill="none" xmlns="http://www.w3.org/2000/svg">
<path d="M33.8347 5.69198L38.0247 6.52948C38.2497 6.57448 38.4347 6.73948 38.4997 6.96198C38.5325 7.07006 38.5354 7.18502 38.5081 7.29463C38.4809 7.40424 38.4244 7.50441 38.3447 7.58448L34.9122 11.0195C34.5009 11.4285 33.9447 11.6585 33.3647 11.6595H30.5172L23.3672 18.812C23.5036 19.327 23.5287 19.8652 23.4408 20.3908C23.3529 20.9163 23.154 21.417 22.8574 21.8596C22.5608 22.3022 22.1732 22.6766 21.7206 22.9577C21.268 23.2388 20.7607 23.4202 20.2324 23.4899C19.7042 23.5595 19.1672 23.5158 18.6571 23.3616C18.1471 23.2075 17.6758 22.9464 17.2746 22.5958C16.8734 22.2452 16.5515 21.8131 16.3304 21.3284C16.1092 20.8436 15.994 20.3173 15.9922 19.7845C15.9921 19.209 16.1244 18.6413 16.3789 18.1252C16.6334 17.6091 17.0032 17.1585 17.4598 16.8082C17.9164 16.458 18.4475 16.2176 19.0119 16.1055C19.5763 15.9934 20.1589 16.0127 20.7147 16.162L27.8672 9.00698V6.16448C27.8672 5.58448 28.0972 5.02698 28.5072 4.61698L31.9422 1.18198C32.0223 1.1023 32.1224 1.04581 32.232 1.01852C32.3416 0.991225 32.4566 0.994148 32.5647 1.02698C32.7872 1.09198 32.9522 1.27698 32.9972 1.50198L33.8347 5.69198Z" fill="currentColor"/>
<path d="M4.74193 19.7842C4.7445 21.9291 5.20704 24.0485 6.09835 25.9994C6.98966 27.9504 8.28901 29.6875 9.90874 31.0935C11.5285 32.4996 13.4309 33.542 15.4878 34.1503C17.5446 34.7586 19.708 34.9187 21.832 34.6199C23.9559 34.321 25.9911 33.5701 27.8002 32.4178C29.6093 31.2655 31.1503 29.7387 32.3191 27.9402C33.4879 26.1418 34.2575 24.1135 34.5758 21.9924C34.8941 19.8712 34.7539 17.7065 34.1644 15.6442C34.0817 15.4032 34.0488 15.148 34.0679 14.8939C34.0869 14.6399 34.1575 14.3924 34.2752 14.1664C34.393 13.9405 34.5555 13.741 34.7528 13.5799C34.9502 13.4188 35.1783 13.2995 35.4232 13.2294C35.6681 13.1592 35.9247 13.1396 36.1774 13.1718C36.4301 13.204 36.6736 13.2873 36.8931 13.4167C37.1126 13.546 37.3035 13.7186 37.4542 13.9241C37.6048 14.1295 37.7121 14.3634 37.7694 14.6117C38.9107 18.6055 38.6939 22.8652 37.1531 26.7225C35.6122 30.5798 32.8344 33.8165 29.2555 35.9247C25.6766 38.0329 21.499 38.8934 17.3783 38.3712C13.2576 37.8489 9.42678 35.9735 6.48693 33.0392C3.55028 30.1 1.67287 26.2689 1.14944 22.1472C0.626008 18.0255 1.48621 13.8467 3.59498 10.2668C5.70376 6.687 8.94169 3.90882 12.8004 2.36852C16.6591 0.828214 20.9201 0.613001 24.9144 1.75667C25.39 1.8957 25.7913 2.21734 26.0304 2.6513C26.2696 3.08526 26.3273 3.59625 26.1909 4.07261C26.0544 4.54896 25.735 4.95195 25.3023 5.19349C24.8697 5.43504 24.359 5.4955 23.8819 5.36167C21.6484 4.72029 19.2963 4.60664 17.0113 5.02967C14.7263 5.4527 12.5708 6.40086 10.7149 7.79934C8.85899 9.19783 7.35338 11.0084 6.31682 13.0882C5.28027 15.1681 4.74113 17.4603 4.74193 19.7842Z" fill="currentColor"/>
<path d="M12.2424 19.7845C12.2426 21.151 12.6158 22.4915 13.3218 23.6614C14.0279 24.8314 15.0399 25.7863 16.2488 26.4233C17.4578 27.0604 18.8176 27.3552 20.1818 27.2761C21.546 27.197 22.8627 26.747 23.9899 25.9745C25.1169 25.2001 26.0107 24.1323 26.5747 22.8867C27.1387 21.641 27.3515 20.2648 27.1899 18.907C27.1462 18.5775 27.1911 18.2423 27.32 17.936C27.4489 17.6296 27.6572 17.3631 27.9233 17.164C28.1894 16.9648 28.5038 16.8402 28.8341 16.803C29.1644 16.7657 29.4986 16.8171 29.8024 16.952C30.1061 17.0851 30.3691 17.2964 30.5646 17.5643C30.76 17.8322 30.8809 18.1471 30.9149 18.477C31.1865 20.7973 30.7291 23.1445 29.6062 25.193C28.4832 27.2415 26.7504 28.8896 24.6483 29.9086C22.5461 30.9275 20.1789 31.2668 17.8751 30.8793C15.5714 30.4918 13.4454 29.3968 11.7923 27.7462C10.1392 26.0955 9.04091 23.9712 8.64991 21.6681C8.25892 19.3649 8.5946 16.9972 9.61037 14.8935C10.6261 12.7898 12.2716 11.0545 14.3184 9.92842C16.3652 8.80236 18.7117 8.34139 21.0324 8.60951C21.2809 8.63256 21.5223 8.70499 21.7424 8.82255C21.9625 8.9401 22.157 9.10042 22.3144 9.2941C22.4717 9.48778 22.5889 9.71092 22.6589 9.95046C22.7289 10.19 22.7504 10.4411 22.7221 10.689C22.6938 10.937 22.6163 11.1768 22.4941 11.3944C22.372 11.612 22.2076 11.803 22.0106 11.9563C21.8137 12.1095 21.5881 12.2219 21.3472 12.2869C21.1062 12.3518 20.8547 12.368 20.6074 12.3345C19.5565 12.2125 18.4918 12.3142 17.483 12.6329C16.4742 12.9516 15.5443 13.4801 14.7543 14.1837C13.9643 14.8873 13.332 15.7501 12.8991 16.7154C12.4662 17.6806 12.2424 18.7266 12.2424 19.7845Z" fill="currentColor"/>
</svg>
