<svg width="41" height="40" viewBox="0 0 41 40" fill="none" xmlns="http://www.w3.org/2000/svg">
<path d="M36.5613 33.7361C36.5613 34.7262 35.5296 35.3203 34.6541 34.82C33.466 34.153 32.2883 33.4547 31.1106 32.7773C30.2247 32.2666 29.3701 31.5892 28.4113 31.3182C27.5045 31.0681 26.4728 31.2557 25.4931 31.2557C21.6161 31.2557 17.7286 31.2557 13.8516 31.2557C11.5275 31.2557 9.78698 30.2552 8.63013 28.2333C7.37948 26.0446 6.11841 23.8664 4.86775 21.6778C4.39876 20.844 4.71142 19.979 5.55561 19.7393C6.09756 19.5829 6.59782 19.7601 6.92091 20.2916C7.46286 21.1775 7.98396 22.0738 8.50506 22.9701C9.22419 24.2208 9.94331 25.4714 10.6624 26.7221C11.4337 28.0769 12.5905 28.744 14.1538 28.744C18.3956 28.744 22.6478 28.744 26.8896 28.7335C27.2231 28.7335 27.5671 28.744 27.9006 28.744C28.7865 28.7648 29.5994 28.9732 30.381 29.4422C32.0277 30.4323 33.7057 31.3703 35.3732 32.3292C35.6129 32.4646 35.8318 32.621 36.0611 32.7773C36.4259 33.017 36.5301 33.3714 36.5613 33.7361Z" fill="currentColor"/>
<path d="M20.0003 36.2585C25.5241 36.2585 31.0478 36.2585 36.5611 36.2585C36.6861 36.2585 36.8216 36.248 36.9467 36.2689C37.2802 36.321 37.4782 36.5294 37.499 36.8734C37.5199 37.1965 37.2698 37.4674 36.9362 37.5091C36.832 37.5195 36.7278 37.5195 36.6236 37.5195C25.5449 37.5195 14.4558 37.5195 3.3771 37.5195C3.26246 37.5195 3.1374 37.53 3.02275 37.5091C2.68925 37.4466 2.49123 37.2381 2.49123 36.8838C2.49123 36.5399 2.69967 36.3314 3.03318 36.2689C3.15824 36.248 3.29373 36.2585 3.41879 36.2585C8.96335 36.2585 14.4871 36.2585 20.0003 36.2585Z" fill="currentColor"/>
<path d="M18.708 11.2245C18.6142 11.2661 18.5725 11.287 18.5204 11.2974C16.2275 11.9019 13.9347 12.5064 11.6106 13.1213C11.35 11.4329 11.2145 9.76536 11.3917 8.09782C11.4751 7.30574 11.621 6.49282 11.8919 5.74243C12.4652 4.10616 13.4553 3.83519 14.7893 4.96077C15.3417 5.42977 15.8211 5.99256 16.2588 6.56577C17.301 7.98318 18.041 9.57776 18.708 11.2245Z" fill="currentColor"/>
<path d="M26.0452 9.27575C24.0024 9.8177 21.991 10.3596 19.9587 10.9016C18.8852 8.32734 17.7387 5.82604 15.5605 3.96048C19.25 3.69993 23.5751 5.48211 26.0452 9.27575Z" fill="currentColor"/>
<path d="M10.3807 13.4655C8.35885 14.0075 6.34739 14.5494 4.3255 15.0914C3.93988 11.923 7.51466 6.38891 10.6621 5.31543C9.81795 8.00433 10.016 10.7245 10.3807 13.4655Z" fill="currentColor"/>
<path d="M14.8828 13.5591C15.2997 13.4445 15.6749 13.3402 16.0918 13.2256C17.3633 17.9781 18.6348 22.7305 19.9167 27.4934C19.479 27.4934 19.0621 27.4934 18.6139 27.4934C17.3737 22.866 16.1335 18.2386 14.8828 13.5591Z" fill="currentColor"/>
<path d="M15.6227 32.5273C15.6227 33.3507 15.6227 34.1532 15.6227 34.987C14.7996 34.987 13.9869 34.987 13.1533 34.987C13.1533 34.1845 13.1533 33.3715 13.1533 32.5273C13.9556 32.5273 14.7683 32.5273 15.6227 32.5273Z" fill="currentColor"/>
<path d="M27.4932 35.0081C26.6701 35.0081 25.8678 35.0081 25.0342 35.0081C25.0342 34.1848 25.0342 33.3719 25.0342 32.5381C25.8365 32.5381 26.6492 32.5381 27.4932 32.5381C27.4932 33.3406 27.4932 34.1535 27.4932 35.0081Z" fill="currentColor"/>
<path d="M21.9276 34.9974C21.49 34.9974 21.0836 34.9974 20.6356 34.9974C20.4168 34.1949 20.198 33.3715 19.9688 32.5273C20.4168 32.5273 20.8231 32.5273 21.2712 32.5273C21.49 33.3403 21.7088 34.1532 21.9276 34.9974Z" fill="currentColor"/>
</svg>
