<svg width="16" height="17" viewBox="0 0 16 17" fill="none" xmlns="http://www.w3.org/2000/svg">
<g clip-path="url(#clip0_104_34)">
<mask id="mask0_104_34" style="mask-type:luminance" maskUnits="userSpaceOnUse" x="0" y="0" width="16" height="17">
<path d="M7.99968 15.1668C8.87532 15.1679 9.74254 14.996 10.5515 14.6609C11.3605 14.3258 12.0953 13.8341 12.7137 13.2142C13.3336 12.5958 13.8253 11.861 14.1604 11.052C14.4955 10.243 14.6674 9.3758 14.6663 8.50017C14.6674 7.62453 14.4955 6.75731 14.1604 5.94833C13.8253 5.13935 13.3336 4.40456 12.7137 3.78617C12.0953 3.16622 11.3605 2.67457 10.5515 2.33947C9.74254 2.00437 8.87532 1.83242 7.99968 1.8335C7.12404 1.83242 6.25682 2.00437 5.44784 2.33947C4.63886 2.67457 3.90407 3.16622 3.28568 3.78617C2.66573 4.40456 2.17409 5.13935 1.83898 5.94833C1.50388 6.75731 1.33193 7.62453 1.33301 8.50017C1.33193 9.3758 1.50388 10.243 1.83898 11.052C2.17409 11.861 2.66573 12.5958 3.28568 13.2142C3.90407 13.8341 4.63886 14.3258 5.44784 14.6609C6.25682 14.996 7.12404 15.1679 7.99968 15.1668Z" fill="white" stroke="white" stroke-width="2" stroke-linejoin="round"/>
<path d="M5.33301 8.5L7.33301 10.5L11.333 6.5" stroke="black" stroke-width="2" stroke-linecap="round" stroke-linejoin="round"/>
</mask>
<g mask="url(#mask0_104_34)">
<path d="M0 0.5H16V16.5H0V0.5Z" fill="#00B7F1"/>
</g>
</g>
<defs>
<clipPath id="clip0_104_34">
<rect width="16" height="16" fill="white" transform="translate(0 0.5)"/>
</clipPath>
</defs>
</svg>
