<svg width="30" height="31" viewBox="0 0 30 31" fill="none" xmlns="http://www.w3.org/2000/svg">
<g clip-path="url(#clip0_58_3876)">
<path d="M9.36931 15.5004C9.86944 15.5004 10.3305 15.5082 10.7994 15.5004C12.2372 15.477 13.3938 14.4295 13.5735 12.9835C13.7455 11.639 12.8312 10.318 11.4714 9.97409C11.2135 9.90375 10.9322 9.8803 10.6587 9.8803C9.24428 9.87248 7.82985 9.87248 6.3529 9.87248C7.30628 8.42641 8.50971 7.30864 9.97885 6.48009C11.4636 5.65935 13.05 5.22162 14.7379 5.18254C19.5282 5.0731 22.8963 8.1372 24.1388 10.787C23.7637 10.8105 23.3808 10.7948 23.0135 10.8652C21.9038 11.0606 21.1146 11.9986 21.0989 13.1242C21.0911 13.7495 21.0989 14.3748 21.0989 15.0314C20.3722 15.0314 19.6532 15.0158 18.9343 15.0392C18.5826 15.047 18.231 15.0705 17.895 15.1565C16.4102 15.5317 15.41 16.9465 15.4803 18.5098C15.5506 20.0106 16.7306 21.3159 18.2232 21.5426C18.4498 21.5739 18.6921 21.5973 18.9187 21.5973C20.3644 21.6052 21.8101 21.5973 23.2557 21.5973C21.8804 23.7234 18.5748 26.0215 14.5035 25.8105C9.74441 25.5682 6.52482 22.293 5.42297 19.2524C5.759 19.2524 6.08721 19.2524 6.41542 19.2524C8.17369 19.2524 9.37713 18.0486 9.37713 16.2977C9.36931 16.0398 9.36931 15.7896 9.36931 15.5004Z" fill="currentColor"/>
<path d="M24.6002 11.7481C25.1394 13.1081 25.3738 14.5386 25.3035 16.0159C25.2253 17.587 24.8033 19.0644 24.0453 20.4479C23.9594 20.6042 23.8656 20.6589 23.6859 20.6589C22.0683 20.6511 20.4428 20.6589 18.8252 20.6511C17.4577 20.6511 16.4105 19.6272 16.4105 18.314C16.4027 16.9852 17.4577 15.9612 18.833 15.9612C19.6926 15.9612 20.5522 15.9612 21.4118 15.9612C21.8885 15.9612 22.037 15.8049 22.037 15.328C22.037 14.6245 22.037 13.9211 22.037 13.2176C22.037 12.3421 22.6309 11.7481 23.5061 11.7402C23.8578 11.7402 24.2172 11.7481 24.6002 11.7481Z" fill="currentColor"/>
<path d="M5.07124 18.3145C4.37575 15.7194 4.61018 13.2415 5.80581 10.8262C5.88395 10.8184 5.9621 10.8105 6.04806 10.8105C7.60315 10.8105 9.15043 10.8105 10.7055 10.8105C11.8152 10.8105 12.6513 11.6157 12.6592 12.6787C12.6592 13.7496 11.823 14.5625 10.6977 14.5625C10.1351 14.5625 9.5646 14.5625 9.00195 14.5625C8.61904 14.5625 8.44712 14.7345 8.44712 15.1175C8.44712 15.563 8.45493 16.0164 8.44712 16.4619C8.43149 17.4859 7.61878 18.291 6.59507 18.3066C6.08713 18.3223 5.587 18.3145 5.07124 18.3145Z" fill="currentColor"/>
<path d="M5.35296 5.98745C5.02475 6.32356 4.71217 6.63622 4.4074 6.96452C4.36051 7.01142 4.3527 7.12085 4.37614 7.1912C4.42303 7.3788 4.50117 7.55858 4.55588 7.74617C4.63402 8.03539 4.5168 8.26989 4.25111 8.35587C3.99323 8.44185 3.72754 8.3246 3.66502 8.02757C3.55562 7.44915 3.25085 7.1443 2.67257 7.03487C2.37562 6.98015 2.25059 6.6753 2.34436 6.41736C2.43032 6.17504 2.70383 6.03435 2.96953 6.16723C3.50091 6.44081 3.8682 6.28448 4.19641 5.83893C4.33707 5.65133 4.52462 5.51064 4.69654 5.33085C4.19641 5.00256 3.72754 4.6899 3.26648 4.36942C2.96953 4.174 2.8992 3.92387 3.04767 3.68156C3.20396 3.43143 3.48529 3.39234 3.79005 3.59558C4.31363 3.9395 4.8372 4.29125 5.39203 4.66645C5.72024 4.33033 6.03282 4.00204 6.36103 3.67374C6.61891 3.41579 6.90024 3.40016 7.10342 3.61121C7.29878 3.81444 7.27533 4.0802 7.02527 4.33033C6.70487 4.65081 6.36885 4.97129 6.03282 5.29959C6.40792 5.8702 6.7752 6.40954 7.13467 6.94888C7.26752 7.1443 7.29878 7.3788 7.11123 7.53513C6.99401 7.63674 6.7752 7.68364 6.61891 7.66801C6.5017 7.65238 6.38448 7.50386 6.30633 7.38661C5.98594 6.94888 5.68117 6.47989 5.35296 5.98745Z" fill="currentColor"/>
<path d="M24.2169 4.38477C24.381 4.47075 24.4982 4.50201 24.5764 4.58018C25.0218 5.01009 25.4672 5.44782 25.897 5.90118C26.108 6.12786 26.0924 6.39362 25.897 6.57341C25.6939 6.76882 25.4282 6.74537 25.2015 6.51869C24.7874 6.10441 24.3732 5.69013 23.959 5.27585C23.8027 5.11952 23.7011 4.92411 23.834 4.72869C23.9278 4.588 24.0919 4.4942 24.2169 4.38477Z" fill="currentColor"/>
<path d="M6.25163 26.123C6.15005 26.2481 6.07971 26.4279 5.95468 26.4826C5.81402 26.5373 5.57177 26.5451 5.478 26.4592C4.97786 26.0058 4.50899 25.529 4.04794 25.0444C3.8682 24.8568 3.91509 24.5832 4.11045 24.419C4.298 24.2549 4.54807 24.2471 4.74343 24.4347C5.19667 24.8802 5.6421 25.3257 6.07971 25.7791C6.15005 25.8495 6.1813 25.9745 6.25163 26.123Z" fill="currentColor"/>
<path d="M26.1162 24.708C26.0224 24.8878 25.9833 25.0206 25.8896 25.1144C25.4676 25.5522 25.0456 25.9821 24.608 26.3964C24.3735 26.623 24.1 26.6074 23.9125 26.4042C23.7249 26.1931 23.7484 25.9352 23.9828 25.7085C24.397 25.2942 24.8111 24.8799 25.2253 24.4657C25.3738 24.3172 25.5613 24.2234 25.7489 24.3328C25.8896 24.4188 25.9911 24.5751 26.1162 24.708Z" fill="currentColor"/>
<path d="M10.9556 28.7106C10.9556 29.1405 10.6743 29.3828 10.3539 29.2656C9.73655 29.0389 9.12701 28.7809 8.52529 28.5074C8.29867 28.4057 8.23616 28.1165 8.34556 27.8977C8.45496 27.6788 8.69721 27.585 8.93947 27.6788C9.51774 27.9133 10.096 28.14 10.6587 28.3979C10.7993 28.4683 10.8931 28.6481 10.9556 28.7106Z" fill="currentColor"/>
<path d="M19.5368 1.7041C19.5837 1.71192 19.6618 1.72755 19.7321 1.751C20.2792 1.97768 20.834 2.19655 21.3732 2.43104C21.678 2.56392 21.7796 2.84532 21.6545 3.09545C21.5373 3.32995 21.2638 3.4003 20.9747 3.28305C20.4355 3.05637 19.8963 2.82969 19.357 2.61082C19.1148 2.50921 18.9976 2.33724 19.0445 2.0793C19.0914 1.8448 19.2555 1.71192 19.5368 1.7041Z" fill="currentColor"/>
<path d="M28.7884 10.9904C28.7884 11.2249 28.6634 11.3812 28.4446 11.4437C28.2101 11.5063 28.0069 11.4203 27.9054 11.2014C27.6475 10.6073 27.3974 10.0055 27.163 9.39578C27.077 9.17691 27.1708 8.98931 27.3662 8.87207C27.5615 8.75482 27.8194 8.747 27.921 8.9346C28.2648 9.59901 28.554 10.279 28.8665 10.9591C28.8353 10.9669 28.8118 10.9747 28.7884 10.9904Z" fill="currentColor"/>
<path d="M2.9144 21.7923C2.78937 21.9252 2.67996 22.0972 2.53149 22.1675C2.33612 22.2691 2.09387 22.1988 2.0001 21.9877C1.71877 21.3702 1.46089 20.7371 1.22646 20.1039C1.1405 19.8695 1.26553 19.6584 1.50778 19.5646C1.75003 19.4786 1.96884 19.549 2.07824 19.7835C2.34394 20.3853 2.58619 21.0029 2.83625 21.6125C2.85188 21.6438 2.85188 21.6907 2.8597 21.7298C2.88314 21.7532 2.89877 21.7689 2.9144 21.7923Z" fill="currentColor"/>
<path d="M21.6935 28.218C21.631 28.2884 21.545 28.4682 21.4044 28.5385C20.8417 28.8043 20.2634 29.0388 19.6852 29.2576C19.4117 29.3671 19.146 29.2264 19.06 28.9841C18.974 28.7339 19.0913 28.4916 19.3726 28.3822C19.9196 28.1555 20.4666 27.921 21.0136 27.6943C21.3653 27.5536 21.6935 27.7569 21.6935 28.218Z" fill="currentColor"/>
<path d="M2.30529 8.79346C2.71165 8.80127 2.93827 9.0983 2.82105 9.40315C2.58661 9.99721 2.34436 10.5913 2.08648 11.1853C1.98489 11.4198 1.7739 11.5136 1.53165 11.4355C1.2894 11.3573 1.13311 11.1541 1.21907 10.9196C1.46132 10.263 1.73483 9.62201 2.02397 8.98105C2.07867 8.87944 2.25059 8.83254 2.30529 8.79346Z" fill="currentColor"/>
<path d="M28.7892 20.0339C28.7735 20.0886 28.7657 20.1746 28.7267 20.2527C28.5079 20.7921 28.289 21.3314 28.0546 21.8708C27.9218 22.1834 27.6483 22.285 27.3904 22.16C27.1559 22.0427 27.0778 21.7691 27.2028 21.4799C27.4294 20.9406 27.6561 20.4012 27.8749 19.8619C27.9765 19.6196 28.1484 19.5023 28.3985 19.5492C28.6485 19.5883 28.7735 19.7525 28.7892 20.0339Z" fill="currentColor"/>
<path d="M1.43007 15.5003C1.43007 15.7817 1.43007 16.0631 1.43007 16.3445C1.43789 16.6649 1.26597 16.876 0.992458 16.8994C0.726764 16.9151 0.507957 16.7275 0.492328 16.407C0.476699 15.7973 0.476699 15.1798 0.492328 14.5701C0.500142 14.2496 0.726764 14.062 1.00027 14.0855C1.27378 14.1089 1.43007 14.32 1.42226 14.6483C1.42226 14.9375 1.42226 15.2189 1.43007 15.5003Z" fill="currentColor"/>
<path d="M14.9809 29.0698C15.2701 29.0698 15.567 29.0698 15.8561 29.0698C16.1687 29.0698 16.3875 29.2418 16.4032 29.5154C16.4188 29.7733 16.2391 29.9922 15.9343 30C15.3091 30.0156 14.6918 30.0234 14.0666 30C13.7618 29.9922 13.5821 29.7811 13.5977 29.5154C13.6134 29.2418 13.8244 29.0698 14.1369 29.0698C14.4183 29.0698 14.6996 29.0698 14.9809 29.0698Z" fill="currentColor"/>
<path d="M15.0039 1.92286C14.7226 1.92286 14.4413 1.92286 14.1599 1.92286C13.8317 1.93067 13.6207 1.77434 13.5895 1.50076C13.5582 1.21937 13.7536 1.0005 14.0974 0.984869C14.6991 0.969236 15.3009 0.969236 15.9026 0.984869C16.223 0.992686 16.4105 1.20373 16.3949 1.47731C16.3793 1.75871 16.1526 1.93067 15.8166 1.91504C15.6838 1.90722 15.5431 1.89941 15.4103 1.89941C15.2774 1.89941 15.1368 1.89941 15.0039 1.89941C15.0039 1.90722 15.0039 1.91504 15.0039 1.92286Z" fill="currentColor"/>
<path d="M28.5699 15.5003C28.5699 15.2189 28.5699 14.9375 28.5699 14.6561C28.5621 14.3356 28.7262 14.1167 28.9919 14.0933C29.2654 14.0698 29.4842 14.2574 29.4999 14.5779C29.5155 15.2032 29.5155 15.8207 29.4999 16.4461C29.4921 16.7431 29.2654 16.9229 29.0076 16.9072C28.7419 16.8916 28.5699 16.6806 28.5778 16.3835C28.5778 16.235 28.5934 16.0943 28.6012 15.9458C28.6012 15.7973 28.6012 15.6566 28.6012 15.5081C28.5856 15.5003 28.5778 15.5003 28.5699 15.5003Z" fill="currentColor"/>
</g>
<defs>
<clipPath id="clip0_58_3876">
<rect width="30" height="30" fill="currentColor" transform="translate(0 0.5)"/>
</clipPath>
</defs>
</svg>
