<svg width="18" height="19" viewBox="0 0 18 19" fill="none" xmlns="http://www.w3.org/2000/svg">
<path d="M9 1.625C4.86 1.625 1.5 4.985 1.5 9.125C1.5 13.265 4.86 16.625 9 16.625C13.14 16.625 16.5 13.265 16.5 9.125C16.5 4.985 13.14 1.625 9 1.625ZM8.25 15.0725C5.2875 14.705 3 12.185 3 9.125C3 8.66 3.06 8.2175 3.1575 7.7825L6.75 11.375V12.125C6.75 12.95 7.425 13.625 8.25 13.625V15.0725ZM13.425 13.1675C13.23 12.56 12.675 12.125 12 12.125H11.25V9.875C11.25 9.4625 10.9125 9.125 10.5 9.125H6V7.625H7.5C7.9125 7.625 8.25 7.2875 8.25 6.875V5.375H9.75C10.575 5.375 11.25 4.7 11.25 3.875V3.5675C13.4475 4.46 15 6.6125 15 9.125C15 10.685 14.4 12.1025 13.425 13.1675Z" fill="currentColor"/>
</svg>
