<svg width="40" height="40" viewBox="0 0 40 40" fill="none" xmlns="http://www.w3.org/2000/svg">
<path d="M33.3003 22.3219C30.2843 21.7375 27.6024 22.3637 25.3691 24.4508C23.1359 26.538 22.2906 29.1573 22.6767 32.2045C22.5411 32.2045 22.4054 32.2045 22.2802 32.2045C16.3005 32.2045 10.3209 32.2045 4.35165 32.2045C2.38974 32.2045 1.1792 30.9836 1.1792 29.0217C1.1792 23.2925 1.1792 17.5633 1.1792 11.8341C1.16877 9.89303 2.41061 8.66162 4.33078 8.66162C12.9298 8.66162 21.5392 8.66162 30.1382 8.66162C32.0793 8.66162 33.3003 9.8826 33.3003 11.8236C33.3003 15.1839 33.3003 18.5547 33.3003 21.9149C33.3003 22.0402 33.3003 22.1654 33.3003 22.3219ZM25.3587 20.454C25.3796 15.9875 21.7584 12.335 17.3023 12.3141C12.815 12.2932 9.14163 15.904 9.12076 20.3705C9.09989 24.8787 12.7211 28.5416 17.2189 28.552C21.6958 28.5729 25.3483 24.9413 25.3587 20.454Z" fill="currentColor"/>
<path d="M31.2758 23.3653C35.3874 23.3548 38.7373 26.7047 38.7477 30.8059C38.7477 34.9071 35.3979 38.2779 31.2966 38.2779C27.1954 38.2779 23.8455 34.9384 23.8351 30.8268C23.8247 26.7151 27.1537 23.3757 31.2758 23.3653ZM29.5643 32.653C28.9173 32.006 28.2911 31.3694 27.6546 30.7329C27.2998 30.378 26.9449 30.3467 26.6632 30.6181C26.3814 30.8894 26.4127 31.2651 26.7571 31.6095C27.498 32.3608 28.239 33.1018 28.9903 33.8427C29.3973 34.2392 29.6687 34.2497 30.0965 33.8636C32.0063 32.1417 33.9056 30.4093 35.8048 28.677C36.1597 28.3535 36.2118 27.9778 35.9405 27.6961C35.6692 27.4143 35.3144 27.4352 34.9491 27.7691C34.1351 28.4996 33.3316 29.2301 32.528 29.9711C31.5471 30.8477 30.5661 31.7347 29.5643 32.653Z" fill="currentColor"/>
<path d="M24.2839 7.40929C24.1586 7.40929 24.0647 7.40929 23.9812 7.40929C23.6786 7.40929 23.3864 7.40929 23.0316 7.40929C23.0316 6.92925 23.0316 6.47008 23.0316 6.01091C23.0316 5.53086 23.0316 5.05082 23.0316 4.57078C23.0316 3.52721 22.4054 2.91151 21.3514 2.90107C19.0034 2.90107 16.6449 2.90107 14.2969 2.90107C13.8795 2.90107 13.462 2.89063 13.0446 2.90107C12.0637 2.92194 11.448 3.54808 11.448 4.52904C11.448 5.46825 11.448 6.39703 11.4375 7.33624C11.4375 7.34667 11.4271 7.35711 11.4062 7.38842C11.0201 7.38842 10.6235 7.38842 10.2165 7.38842C10.2165 6.23005 10.1226 5.06126 10.2374 3.9029C10.3835 2.64018 11.5836 1.66966 12.909 1.65922C15.7892 1.62792 18.6799 1.62792 21.5601 1.65922C23.0629 1.68009 24.2108 2.82802 24.2734 4.32032C24.3152 5.33259 24.2839 6.34485 24.2839 7.40929Z" fill="currentColor"/>
<path d="M8.49463 7.39877C6.92928 7.39877 5.40567 7.39877 3.86119 7.39877C3.86119 6.97091 3.82988 6.56391 3.87162 6.15692C3.91336 5.72906 4.216 5.44729 4.6543 5.44729C5.66656 5.42642 6.67882 5.42642 7.69108 5.44729C8.17112 5.45773 8.47376 5.80211 8.49463 6.28215C8.50507 6.62653 8.49463 6.99178 8.49463 7.39877Z" fill="currentColor"/>
<path d="M30.6287 7.39877C29.0738 7.39877 27.5398 7.39877 25.9848 7.39877C25.9848 6.99178 25.964 6.59522 25.9953 6.19866C26.0266 5.74993 26.3397 5.44729 26.7884 5.44729C27.8007 5.42642 28.8129 5.42642 29.8252 5.44729C30.3052 5.45773 30.6079 5.79167 30.6287 6.27171C30.6496 6.62653 30.6287 6.99178 30.6287 7.39877Z" fill="currentColor"/>
<path d="M24.1064 20.4328C24.1064 24.2418 21.0279 27.3099 17.2189 27.2995C13.4307 27.289 10.3626 24.2105 10.3626 20.4328C10.3626 16.6342 13.4516 13.5557 17.2502 13.5557C21.0383 13.5661 24.1064 16.6446 24.1064 20.4328ZM15.9874 19.1909C15.0795 19.1909 14.2134 19.1909 13.3577 19.1909C13.3577 20.0362 13.3577 20.8502 13.3577 21.7059C14.2343 21.7059 15.1004 21.7059 15.9979 21.7059C15.9979 22.6034 15.9979 23.4696 15.9979 24.3149C16.8536 24.3149 17.6676 24.3149 18.5233 24.3149C18.5233 23.4278 18.5233 22.5721 18.5233 21.6851C19.4208 21.6851 20.2661 21.6851 21.1218 21.6851C21.1218 20.8293 21.1218 20.0154 21.1218 19.1596C20.2452 19.1596 19.3895 19.1596 18.5024 19.1596C18.5024 18.2726 18.5024 17.4064 18.5024 16.5507C17.6467 16.5507 16.8327 16.5507 15.9979 16.5507C15.9874 17.4169 15.9874 18.2726 15.9874 19.1909Z" fill="currentColor"/>
</svg>
