<svg width="16" height="16" viewBox="0 0 16 16" fill="none" xmlns="http://www.w3.org/2000/svg">
<g clip-path="url(#clip0_58_3659)">
<path d="M8.00032 0.666992C6.54993 0.666992 5.1321 1.09709 3.92614 1.90289C2.72018 2.70868 1.78025 3.85399 1.22521 5.19398C0.670169 6.53398 0.524945 8.00846 0.807903 9.43099C1.09086 10.8535 1.78929 12.1602 2.81488 13.1858C3.84046 14.2114 5.14714 14.9098 6.56966 15.1928C7.99219 15.4757 9.46668 15.3305 10.8066 14.7755C12.1466 14.2204 13.2919 13.2805 14.0977 12.0745C14.9035 10.8686 15.3336 9.45073 15.3336 8.00033C15.3313 6.05611 14.558 4.19218 13.1832 2.81741C11.8084 1.44264 9.94454 0.669286 8.00032 0.666992ZM10.4716 10.4717C10.3466 10.5967 10.1771 10.6669 10.0003 10.6669C9.82355 10.6669 9.65401 10.5967 9.52899 10.4717L7.52899 8.47166C7.40396 8.34667 7.3337 8.17713 7.33366 8.00033V4.00033C7.33366 3.82352 7.4039 3.65395 7.52892 3.52892C7.65394 3.4039 7.82351 3.33366 8.00032 3.33366C8.17714 3.33366 8.34671 3.4039 8.47173 3.52892C8.59675 3.65395 8.66699 3.82352 8.66699 4.00033V7.72433L10.4716 9.529C10.5966 9.65401 10.6668 9.82355 10.6668 10.0003C10.6668 10.1771 10.5966 10.3467 10.4716 10.4717Z" fill="currentColor" fill-opacity="1"/>
</g>
<defs>
<clipPath id="clip0_58_3659">
<rect width="16" height="16" fill="currentColor"/>
</clipPath>
</defs>
</svg>
