<svg width="20" height="20" viewBox="0 0 20 20" fill="none" xmlns="http://www.w3.org/2000/svg">
<path d="M14.0596 2.08887C14.6158 1.86211 15.2364 1.84551 15.8037 2.04297C16.3708 2.2404 16.8464 2.63826 17.1416 3.16113C17.4368 3.68413 17.5312 4.29717 17.4072 4.88477C17.2831 5.47241 16.9493 5.99548 16.4678 6.35449C15.9862 6.7135 15.3897 6.88479 14.791 6.83594C14.1923 6.78708 13.6319 6.52122 13.2148 6.08887L13.2021 6.07617L13.1865 6.08496L7.40527 9.33789L7.38965 9.34668L7.39453 9.36426C7.50535 9.78072 7.50543 10.2193 7.39453 10.6357L7.38965 10.6533L7.40527 10.6621L13.1865 13.915L13.2021 13.9238L13.2148 13.9102C13.4453 13.6691 13.7226 13.4777 14.0293 13.3467C14.336 13.2157 14.6665 13.1483 15 13.1484C15.5171 13.1485 16.021 13.3103 16.4414 13.6113C16.8619 13.9125 17.1782 14.3375 17.3447 14.8271C17.5113 15.3168 17.5198 15.8467 17.3701 16.3418C17.2204 16.8368 16.9197 17.2726 16.5098 17.5879C16.0998 17.9032 15.6009 18.082 15.084 18.0996C14.5671 18.1172 14.0574 17.9731 13.627 17.6865C13.1966 17.4 12.8667 16.9855 12.6836 16.502C12.5005 16.0183 12.4737 15.4891 12.6064 14.9893L12.6113 14.9717L12.5947 14.9629L6.81348 11.71L6.79785 11.7012L6.78516 11.7139C6.44315 12.0704 6.00252 12.3169 5.51953 12.4209C5.03641 12.5249 4.53275 12.4822 4.07422 12.2979C3.61581 12.1136 3.22299 11.796 2.94629 11.3867C2.66963 10.9773 2.52155 10.4941 2.52148 10C2.52148 9.5058 2.6696 9.02276 2.94629 8.61328C3.22298 8.20383 3.61572 7.88651 4.07422 7.70215C4.53277 7.5178 5.03637 7.47413 5.51953 7.57812C6.00247 7.68213 6.44316 7.92868 6.78516 8.28516L6.79785 8.29883L6.81348 8.29004L12.5947 5.03711L12.6113 5.02832L12.6064 5.01074C12.4518 4.43036 12.5138 3.81314 12.7812 3.27539C13.0488 2.73767 13.5034 2.31565 14.0596 2.08887Z" fill="currentColor" stroke="currentColor" stroke-width="0.046875"/>
</svg>
