<svg width="16" height="17" viewBox="0 0 16 17" fill="none" xmlns="http://www.w3.org/2000/svg">
<path d="M10.6668 11.8337V13.167H1.3335V11.8337C1.3335 11.8337 1.3335 9.16702 6.00016 9.16702C10.6668 9.16702 10.6668 11.8337 10.6668 11.8337ZM8.3335 5.50035C8.3335 5.03886 8.19665 4.58773 7.94026 4.20402C7.68387 3.8203 7.31945 3.52124 6.89309 3.34463C6.46673 3.16803 5.99757 3.12182 5.54495 3.21185C5.09233 3.30188 4.67657 3.52411 4.35025 3.85043C4.02392 4.17676 3.8017 4.59252 3.71166 5.04514C3.62163 5.49776 3.66784 5.96692 3.84444 6.39328C4.02105 6.81964 4.32012 7.18406 4.70383 7.44045C5.08755 7.69684 5.53867 7.83368 6.00016 7.83368C6.619 7.83368 7.21249 7.58785 7.65008 7.15027C8.08766 6.71268 8.3335 6.11919 8.3335 5.50035ZM10.6268 9.16702C11.0367 9.48418 11.372 9.88731 11.6093 10.348C11.8465 10.8087 11.98 11.3159 12.0002 11.8337V13.167H14.6668V11.8337C14.6668 11.8337 14.6668 9.41368 10.6268 9.16702ZM10.0002 3.16702C9.54135 3.16488 9.09269 3.30204 8.7135 3.56035C9.11846 4.12617 9.3362 4.80454 9.3362 5.50035C9.3362 6.19616 9.11846 6.87453 8.7135 7.44035C9.09269 7.69866 9.54135 7.83582 10.0002 7.83368C10.619 7.83368 11.2125 7.58785 11.6501 7.15027C12.0877 6.71268 12.3335 6.11919 12.3335 5.50035C12.3335 4.88151 12.0877 4.28802 11.6501 3.85043C11.2125 3.41285 10.619 3.16702 10.0002 3.16702Z" fill="currentColor" fill-opacity="0.6"/>
</svg>
