<svg width="32" height="33" viewBox="0 0 32 33" fill="none" xmlns="http://www.w3.org/2000/svg">
<g clip-path="url(#clip0_144_374)">
<path d="M12.9999 32.4998C12.6839 32.5014 12.3749 32.4065 12.1142 32.2279C11.8535 32.0492 11.6536 31.7952 11.5411 31.4998L9.05113 25.0248C9.0007 24.8943 8.92355 24.7759 8.82464 24.6769C8.72573 24.578 8.60723 24.5009 8.47676 24.4504L1.99988 21.9586C1.70485 21.8453 1.45108 21.6453 1.27208 21.3849C1.09308 21.1244 0.997252 20.8158 0.997252 20.4998C0.997252 20.1838 1.09308 19.8752 1.27208 19.6148C1.45108 19.3543 1.70485 19.1543 1.99988 19.0411L8.47488 16.5511C8.60536 16.5006 8.72385 16.4235 8.82277 16.3246C8.92168 16.2257 8.99883 16.1072 9.04926 15.9767L11.5411 9.49983C11.6544 9.20479 11.8544 8.95103 12.1148 8.77202C12.3753 8.59302 12.6839 8.4972 12.9999 8.4972C13.3159 8.4972 13.6245 8.59302 13.8849 8.77202C14.1454 8.95103 14.3454 9.20479 14.4586 9.49983L16.9486 15.9748C16.9991 16.1053 17.0762 16.2238 17.1751 16.3227C17.274 16.4216 17.3925 16.4988 17.523 16.5492L23.9605 19.0261C24.2676 19.1399 24.5321 19.3456 24.7181 19.6151C24.904 19.8846 25.0024 20.2049 24.9999 20.5323C24.9951 20.8428 24.8973 21.1448 24.719 21.3991C24.5407 21.6533 24.2902 21.8483 23.9999 21.9586L17.5249 24.4486C17.3944 24.499 17.2759 24.5762 17.177 24.6751C17.0781 24.774 17.0009 24.8925 16.9505 25.0229L14.4586 31.4998C14.3462 31.7952 14.1462 32.0492 13.8856 32.2279C13.6249 32.4065 13.3159 32.5014 12.9999 32.4998ZM5.49988 11.4998C5.3146 11.4998 5.13368 11.4437 4.98094 11.3388C4.8282 11.2339 4.71082 11.0852 4.64426 10.9123L3.59051 8.17233C3.56767 8.1124 3.53242 8.05798 3.48707 8.01264C3.44173 7.96729 3.38731 7.93204 3.32738 7.9092L0.587382 6.85545C0.414494 6.78887 0.26583 6.67148 0.160977 6.51875C0.0561237 6.36601 0 6.18509 0 5.99983C0 5.81456 0.0561237 5.63364 0.160977 5.48091C0.26583 5.32817 0.414494 5.21078 0.587382 5.1442L3.32738 4.09045C3.38725 4.06751 3.44161 4.03222 3.48695 3.98689C3.53228 3.94156 3.56756 3.88719 3.59051 3.82733L4.63488 1.1117C4.69378 0.951829 4.79513 0.811028 4.92805 0.704433C5.06096 0.597838 5.22041 0.529479 5.38926 0.506702C5.59197 0.482059 5.79712 0.525795 5.97216 0.630977C6.14719 0.736158 6.28211 0.896764 6.35551 1.08733L7.40926 3.82733C7.4322 3.88719 7.46748 3.94156 7.51282 3.98689C7.55815 4.03222 7.61252 4.06751 7.67238 4.09045L10.4124 5.1442C10.5853 5.21078 10.7339 5.32817 10.8388 5.48091C10.9436 5.63364 10.9998 5.81456 10.9998 5.99983C10.9998 6.18509 10.9436 6.36601 10.8388 6.51875C10.7339 6.67148 10.5853 6.78887 10.4124 6.85545L7.67238 7.9092C7.61246 7.93204 7.55804 7.96729 7.51269 8.01264C7.46734 8.05798 7.4321 8.1124 7.40926 8.17233L6.35551 10.9123C6.28895 11.0852 6.17157 11.2339 6.01883 11.3388C5.86609 11.4437 5.68516 11.4998 5.49988 11.4998ZM24.9999 16.4998C24.7978 16.4998 24.6004 16.4385 24.4338 16.324C24.2672 16.2095 24.1393 16.0472 24.0668 15.8586L22.6393 12.148C22.6141 12.0826 22.5756 12.0232 22.526 11.9737C22.4765 11.9241 22.4171 11.8856 22.3518 11.8605L18.6411 10.433C18.4526 10.3603 18.2905 10.2323 18.1762 10.0657C18.0619 9.89914 18.0007 9.70185 18.0007 9.49983C18.0007 9.2978 18.0619 9.10051 18.1762 8.93394C18.2905 8.76737 18.4526 8.63934 18.6411 8.5667L22.3518 7.1392C22.4171 7.11409 22.4765 7.07552 22.526 7.02599C22.5756 6.97647 22.6141 6.91709 22.6393 6.8517L24.0561 3.16733C24.1208 2.9931 24.2315 2.83966 24.3765 2.72333C24.5214 2.607 24.6952 2.53214 24.8793 2.5067C25.1005 2.47992 25.3243 2.5278 25.5152 2.64272C25.7061 2.75765 25.8531 2.93305 25.933 3.14108L27.3605 6.8517C27.3856 6.91709 27.4242 6.97647 27.4737 7.02599C27.5232 7.07552 27.5826 7.11409 27.648 7.1392L31.3586 8.5667C31.5471 8.63934 31.7092 8.76737 31.8236 8.93394C31.9379 9.10051 31.9991 9.2978 31.9991 9.49983C31.9991 9.70185 31.9379 9.89914 31.8236 10.0657C31.7092 10.2323 31.5471 10.3603 31.3586 10.433L27.648 11.8605C27.5826 11.8856 27.5232 11.9241 27.4737 11.9737C27.4242 12.0232 27.3856 12.0826 27.3605 12.148L25.933 15.8586C25.8605 16.0472 25.7325 16.2095 25.5659 16.324C25.3994 16.4385 25.202 16.4998 24.9999 16.4998Z" fill="currentColor"/>
</g>
<defs>
<clipPath>
<rect width="32" height="32" fill="white" transform="translate(0 0.5)"/>
</clipPath>
</defs>
</svg>
