<svg width="18" height="19" viewBox="0 0 18 19" fill="none" xmlns="http://www.w3.org/2000/svg">
<path d="M11.625 8.625C11.625 7.17525 10.4497 6 9 6C7.55025 6 6.375 7.17525 6.375 8.625C6.375 10.0747 7.55025 11.25 9 11.25C10.4497 11.25 11.625 10.0747 11.625 8.625Z" stroke="currentColor" stroke-width="1.125" stroke-linecap="round" stroke-linejoin="round"/>
<path d="M11.6127 8.88743C11.8542 8.96063 12.1103 9 12.3757 9C13.8254 9 15.0007 7.82475 15.0007 6.375C15.0007 4.92525 13.8254 3.75 12.3757 3.75C11.0145 3.75 9.8953 4.78605 9.76367 6.1126" stroke="currentColor" stroke-width="1.125" stroke-linecap="round" stroke-linejoin="round"/>
<path d="M8.23703 6.1126C8.1054 4.78605 6.98619 3.75 5.625 3.75C4.17525 3.75 3 4.92525 3 6.375C3 7.82475 4.17525 9 5.625 9C5.89036 9 6.14651 8.96063 6.38795 8.88743" stroke="currentColor" stroke-width="1.125" stroke-linecap="round" stroke-linejoin="round"/>
<path d="M16.5 12.75C16.5 10.679 14.6532 9 12.375 9" stroke="currentColor" stroke-width="1.125" stroke-linecap="round" stroke-linejoin="round"/>
<path d="M13.125 15C13.125 12.929 11.2782 11.25 9 11.25C6.72182 11.25 4.875 12.929 4.875 15" stroke="currentColor" stroke-width="1.125" stroke-linecap="round" stroke-linejoin="round"/>
<path d="M5.625 9C3.34682 9 1.5 10.679 1.5 12.75" stroke="currentColor" stroke-width="1.125" stroke-linecap="round" stroke-linejoin="round"/>
</svg>
