<svg width="30" height="31" viewBox="0 0 30 31" fill="none" xmlns="http://www.w3.org/2000/svg">
<path d="M8.36973 25.2568C7.4945 23.7095 6.62709 22.1857 5.77531 20.6697C5.79875 20.6306 5.79875 20.6072 5.81438 20.5994C7.16629 19.8257 8.51039 19.0364 9.87012 18.2784C10.7141 17.8096 11.5815 17.7549 12.5192 18.0909C13.9493 18.5988 15.4028 19.0286 16.8485 19.4897C17.0439 19.5522 17.247 19.5756 17.4502 19.6225C18.0598 19.771 18.4349 20.3024 18.3098 20.8416C18.1692 21.4511 17.669 21.7637 17.0126 21.6074C15.9733 21.3495 14.9418 21.0604 13.9102 20.7869C13.8555 20.7713 13.793 20.7556 13.7383 20.74C13.3945 20.6462 13.1444 20.7478 13.0663 21.0135C12.9725 21.3105 13.1288 21.5371 13.5039 21.6387C14.0196 21.7872 14.5276 21.9513 15.0512 22.0685C16.0358 22.2951 17.0282 22.5295 18.0207 22.678C18.849 22.803 19.6227 22.553 20.3416 22.131C22.0374 21.1386 23.7409 20.1461 25.4445 19.1615C26.0775 18.7942 26.7339 18.4738 27.4763 18.38C28.1014 18.3019 28.5859 18.5519 28.7579 19.0521C28.922 19.5288 28.836 20.1774 28.2343 20.5446C25.1241 22.4358 22.0217 24.3503 18.9194 26.2727C18.0598 26.8041 17.1689 26.9135 16.1999 26.6556C14.0118 26.0617 11.8159 25.4834 9.62787 24.8817C9.30748 24.7958 9.04178 24.8114 8.77609 25.0067C8.65887 25.1083 8.52602 25.1709 8.36973 25.2568Z" fill="currentColor"/>
<path d="M28.2578 11.0343C27.8905 11.175 27.5388 11.3078 27.1872 11.4563C27.0934 11.5032 26.9996 11.6126 26.9606 11.7142C26.7417 12.2221 26.5229 12.7301 26.3276 13.2458C26.2885 13.3474 26.2729 13.4881 26.3119 13.5897C26.4448 13.9413 26.6089 14.2852 26.773 14.6524C26.3198 15.0979 25.8743 15.5511 25.4133 15.9887C25.3664 16.0356 25.2335 16.0434 25.171 16.02C24.8663 15.8949 24.5693 15.7465 24.2567 15.6293C24.163 15.5902 24.0379 15.6058 23.9441 15.6449C23.4206 15.8481 22.897 16.0669 22.3812 16.2935C22.2796 16.3404 22.1781 16.4263 22.1312 16.5279C21.9983 16.8171 21.9046 17.1296 21.7717 17.4188C21.7326 17.4969 21.6154 17.5907 21.5295 17.5907C20.9668 17.6063 20.3963 17.6063 19.8337 17.5907C19.7556 17.5907 19.6461 17.5047 19.6071 17.4344C19.4742 17.1296 19.3726 16.8171 19.232 16.5123C19.1929 16.4263 19.0913 16.3404 18.9975 16.2935C18.474 16.0669 17.9426 15.8402 17.4112 15.6293C17.3252 15.598 17.208 15.5902 17.1221 15.6214C16.8251 15.7387 16.5282 15.8715 16.239 16.0122C16.114 16.0747 16.028 16.0825 15.9108 15.9653C15.5279 15.5667 15.1293 15.1682 14.7308 14.7853C14.6214 14.6759 14.6058 14.5977 14.6761 14.4571C14.8168 14.1757 14.9418 13.8944 15.0512 13.5975C15.0903 13.4881 15.0746 13.3396 15.0356 13.2302C14.8402 12.7144 14.6214 12.2065 14.4026 11.6985C14.3635 11.6048 14.2776 11.5032 14.1916 11.4641C13.9025 11.3313 13.5977 11.214 13.2929 11.1125C13.1445 11.0656 13.1054 10.9874 13.1054 10.8389C13.1132 10.2841 13.0976 9.72928 13.1132 9.16663C13.1132 9.08067 13.207 8.96346 13.2851 8.92438C13.6133 8.77591 14.0275 8.73683 14.2619 8.5024C14.4886 8.27578 14.5354 7.86161 14.6683 7.5334C14.7543 7.33022 14.8324 7.11141 14.9574 6.93168C15.1293 6.68943 15.1059 6.47843 14.9809 6.23618C14.8402 5.96267 14.6058 5.64228 14.6527 5.39221C14.6996 5.13433 15.0434 4.93116 15.2622 4.71235C15.5279 4.45447 15.7701 4.05593 16.0749 3.99341C16.364 3.93871 16.7313 4.22003 17.0517 4.37632C17.208 4.45447 17.3252 4.43103 17.4815 4.3607C17.966 4.13407 18.4662 3.95434 18.9507 3.73553C19.0679 3.68083 19.1929 3.57924 19.2398 3.46984C19.3726 3.19633 19.4664 2.91501 19.568 2.62587C19.6227 2.46958 19.7009 2.42269 19.865 2.43051C20.412 2.43832 20.959 2.43832 21.506 2.43051C21.6623 2.43051 21.7326 2.48521 21.7795 2.61805C21.8967 2.95408 21.9514 3.36825 22.1859 3.60269C22.4125 3.82931 22.8267 3.87619 23.1627 4.00904C23.3502 4.08719 23.5534 4.1497 23.7175 4.27474C23.991 4.48573 24.2333 4.44666 24.5146 4.29818C24.7725 4.16533 25.0694 3.94653 25.3117 3.99341C25.5539 4.0403 25.7415 4.3607 25.9525 4.56387C26.1791 4.79049 26.4057 5.02493 26.6402 5.24374C26.7496 5.34533 26.7652 5.43129 26.6949 5.57195C26.5542 5.86109 26.4214 6.15804 26.3119 6.45499C26.2807 6.54095 26.2807 6.65817 26.3119 6.74413C26.5229 7.28333 26.7417 7.82253 26.9762 8.36174C27.0153 8.45551 27.1168 8.54147 27.2106 8.58054C27.5076 8.71339 27.8123 8.80716 28.1015 8.94001C28.1718 8.97127 28.2187 9.06504 28.2578 9.13538C28.2812 9.18226 28.2656 9.25259 28.2656 9.30729C28.2578 9.86994 28.2578 10.4482 28.2578 11.0343ZM20.6933 5.91579C18.4818 5.90016 16.661 7.70532 16.6454 9.91683C16.6376 12.1283 18.4271 13.9491 20.6386 13.9726C22.8657 13.9882 24.6865 12.1909 24.6943 9.9559C24.71 7.72876 22.9126 5.9236 20.6933 5.91579Z" fill="currentColor"/>
<path d="M8.55692 27.6325C8.54911 28.031 8.40063 28.2576 8.13493 28.4061C7.69732 28.6562 7.25189 28.9062 6.81428 29.1563C6.25163 29.4689 5.8609 29.3595 5.54832 28.8047C4.59495 27.1167 3.64158 25.4288 2.6882 23.7486C2.23496 22.9516 1.78172 22.1545 1.33629 21.3574C1.03152 20.8104 1.14092 20.4197 1.68013 20.1149C2.10993 19.8648 2.53973 19.6226 2.97734 19.3803C3.45403 19.1146 3.87601 19.2318 4.14952 19.7007C5.57958 22.2248 7.00964 24.7489 8.43189 27.2808C8.50222 27.4137 8.53348 27.5621 8.55692 27.6325ZM3.16489 21.8341C3.46184 21.8419 3.68846 21.6309 3.70409 21.3418C3.71972 21.0448 3.48529 20.7869 3.19615 20.7791C2.90701 20.7713 2.64913 21.0292 2.64913 21.3105C2.64913 21.5997 2.88357 21.8263 3.16489 21.8341Z" fill="currentColor"/>
<path d="M10.4406 6.89248C10.4249 6.93155 10.4015 7.01751 10.3702 7.01751C10.2999 7.02532 10.2218 7.01751 10.1592 6.97844C9.72945 6.70493 9.30746 6.43142 8.88548 6.14228C8.70574 6.01725 8.58071 6.00943 8.39316 6.13447C8.01025 6.40797 7.61952 6.65804 7.22098 6.9081C7.12721 6.97062 7.00217 6.97844 6.89277 7.01751C6.89277 6.9081 6.87714 6.79089 6.90059 6.6893C7.0178 6.22043 7.13502 5.74374 7.2835 5.28268C7.3382 5.09513 7.29131 4.99354 7.15065 4.88414C6.75992 4.57937 6.3692 4.26679 5.98628 3.9464C5.91595 3.88388 5.87688 3.78229 5.82999 3.70414C5.92377 3.67289 6.01754 3.61037 6.11913 3.61037C6.61926 3.57911 7.11158 3.55567 7.61171 3.54004C7.78363 3.53223 7.86959 3.46971 7.9321 3.3056C8.10402 2.8211 8.29157 2.3366 8.48694 1.85991C8.51819 1.78177 8.60415 1.72707 8.65886 1.66455C8.71356 1.72707 8.78389 1.78177 8.80733 1.8521C8.99488 2.32879 9.19024 2.81329 9.36216 3.29779C9.42468 3.47752 9.52627 3.53223 9.706 3.54004C10.2139 3.55567 10.7219 3.57911 11.2298 3.61037C11.3158 3.61818 11.3939 3.6807 11.4721 3.71977C11.4252 3.7901 11.3939 3.87606 11.3392 3.92295C10.9407 4.25116 10.5422 4.57937 10.128 4.89195C9.99514 4.99354 9.94825 5.08732 10.003 5.25924C10.1514 5.73592 10.2687 6.22043 10.3937 6.69711C10.4015 6.75963 10.4249 6.81433 10.4406 6.89248Z" fill="currentColor"/>
<path d="M11.5659 11.9644C11.4877 12.0035 11.3939 12.0191 11.3236 12.0738C10.9251 12.3864 10.5343 12.7146 10.1358 13.0194C9.98733 13.1288 9.95607 13.2304 10.0108 13.4179C10.1592 13.9024 10.2843 14.3948 10.4093 14.8793C10.4328 14.9652 10.3937 15.059 10.3859 15.145C10.2999 15.1215 10.1983 15.1215 10.128 15.0746C9.69038 14.8011 9.26058 14.5198 8.83078 14.2228C8.69793 14.1291 8.60416 14.1291 8.46349 14.2228C8.03369 14.512 7.60389 14.7933 7.16628 15.0668C7.09595 15.1137 6.99436 15.1137 6.9084 15.1371C6.90059 15.0512 6.86933 14.9574 6.89277 14.8714C7.00999 14.3869 7.12721 13.9103 7.2835 13.4336C7.35383 13.2069 7.2835 13.0975 7.11939 12.9647C6.73648 12.6756 6.3692 12.3708 6.00191 12.066C5.93158 12.0035 5.8847 11.9019 5.82999 11.8238C5.92377 11.7925 6.01754 11.73 6.11132 11.7222C6.59582 11.6909 7.08813 11.6597 7.57264 11.6597C7.78363 11.6597 7.88522 11.5659 7.95555 11.3783C8.12747 10.9017 8.3072 10.4328 8.49475 9.9561C8.52601 9.88577 8.59634 9.83888 8.65104 9.77637C8.70574 9.83888 8.78389 9.88577 8.80733 9.9561C8.99488 10.4328 9.19025 10.9173 9.36217 11.4018C9.42468 11.5815 9.51846 11.644 9.69819 11.6519C10.2061 11.6675 10.7141 11.6909 11.222 11.7222C11.3158 11.73 11.4018 11.7769 11.4955 11.8003C11.5112 11.8707 11.5424 11.9176 11.5659 11.9644Z" fill="currentColor"/>
<path d="M20.0362 10.1905C20.7161 9.50285 21.3491 8.86987 21.982 8.23689C22.2399 7.97901 22.5447 7.93994 22.8338 8.09623C23.0995 8.24471 23.2636 8.52603 23.1855 8.8308C23.1464 8.9949 23.0526 9.15901 22.9354 9.27623C22.1696 10.0577 21.3959 10.8235 20.6223 11.5971C20.2941 11.9254 19.9268 11.9722 19.583 11.6675C19.1219 11.2611 18.6921 10.8235 18.2779 10.3703C18.0357 10.1124 18.0904 9.6904 18.3405 9.44033C18.6062 9.18245 18.9969 9.16682 19.2938 9.40907C19.4267 9.51848 19.5517 9.65132 19.6689 9.77636C19.794 9.9092 19.9034 10.0421 20.0362 10.1905Z" fill="currentColor"/>
</svg>
