<svg width="12" height="12" viewBox="0 0 12 12" fill="none" xmlns="http://www.w3.org/2000/svg">
<path d="M5.25 6.625H1.5C1.2875 6.625 1.1095 6.553 0.966003 6.409C0.822503 6.265 0.750503 6.087 0.750003 5.875C0.749503 5.663 0.821503 5.485 0.966003 5.341C1.1105 5.197 1.2885 5.125 1.5 5.125H5.25V1.375C5.25 1.1625 5.322 0.984503 5.466 0.841003C5.61 0.697503 5.788 0.625503 6 0.625003C6.212 0.624503 6.39025 0.696503 6.53475 0.841003C6.67925 0.985503 6.751 1.1635 6.75 1.375V5.125H10.5C10.7125 5.125 10.8908 5.197 11.0348 5.341C11.1788 5.485 11.2505 5.663 11.25 5.875C11.2495 6.087 11.1775 6.26525 11.034 6.40975C10.8905 6.55425 10.7125 6.626 10.5 6.625H6.75V10.375C6.75 10.5875 6.678 10.7658 6.534 10.9098C6.39 11.0538 6.212 11.1255 6 11.125C5.788 11.1245 5.61 11.0525 5.466 10.909C5.322 10.7655 5.25 10.5875 5.25 10.375V6.625Z" fill="currentColor"/>
</svg>
