<svg width="34" height="36" viewBox="0 0 34 36" fill="none" xmlns="http://www.w3.org/2000/svg">
<path d="M25.8781 7.76231C25.7469 8.13731 25.6531 8.54981 25.4563 8.88731C25.1188 9.47793 25.1094 10.0123 25.4656 10.6029C26.2062 11.8217 25.6719 13.4904 24.3688 14.0248C23.7219 14.2967 23.4031 14.7467 23.3469 15.4311C23.225 16.7717 21.9688 17.7467 20.6375 17.5779C20.5719 17.5686 20.4969 17.5498 20.4313 17.5311C19.7844 17.3529 19.2688 17.5311 18.8281 18.0373C18.0688 18.9186 16.7656 19.1248 15.7625 18.5342C15.5375 18.4029 15.3312 18.2061 15.1625 18.0092C14.75 17.5404 14.2531 17.3811 13.6531 17.5123C12.1625 17.8404 10.8219 16.8936 10.6719 15.3936C10.6063 14.7373 10.2969 14.2967 9.67813 14.0342C8.31875 13.4623 7.8125 11.8311 8.57188 10.5654C8.90938 10.0029 8.9 9.47793 8.5625 8.91543C7.80313 7.64981 8.32813 6.02793 9.6875 5.44668C10.2875 5.19355 10.6531 4.76231 10.6531 4.11543C10.6531 2.88731 12.125 1.52793 13.6625 1.95918C14.2719 2.12793 14.7594 1.93105 15.1625 1.4623C16.175 0.318555 17.8531 0.318555 18.8563 1.4623C19.2688 1.93105 19.7469 2.11855 20.3563 1.9498C21.8938 1.52793 23.3562 2.86855 23.3656 4.10605C23.3656 4.73418 23.7125 5.16543 24.3031 5.41855C25.2406 5.84043 25.7938 6.70293 25.8781 7.76231ZM16.9813 14.8592C19.8125 14.8686 22.1094 12.5811 22.1188 9.75918C22.1281 6.93731 19.8313 4.64043 17.0094 4.63105C14.1875 4.63105 11.8813 6.90918 11.8719 9.73106C11.8719 12.5529 14.1594 14.8498 16.9813 14.8592Z" fill="currentColor"/>
<path d="M17.0094 35.3721C14.8907 35.3721 12.7719 35.3721 10.6532 35.3721C10.0344 35.3721 9.87503 35.194 9.95003 34.594C10.3625 31.3971 12.5938 29.0065 15.7625 28.3877C19.4563 27.6658 23.2719 30.2533 23.9657 33.9565C24.0125 34.2002 24.0407 34.444 24.0782 34.6877C24.1344 35.1471 23.9469 35.3721 23.4782 35.3721C21.3125 35.3721 19.1563 35.3721 17.0094 35.3721Z" fill="currentColor"/>
<path d="M25.0251 33.4496C23.9282 30.6652 23.797 30.4683 21.9126 28.7527C22.6345 28.0402 23.4688 27.5339 24.4251 27.2152C28.447 25.8746 32.6563 28.6214 33.0876 32.8777C33.1251 33.2527 32.947 33.4683 32.5813 33.4683C30.0876 33.4683 27.5938 33.4683 25.1001 33.4683C25.0626 33.4683 25.0438 33.4589 25.0251 33.4496Z" fill="currentColor"/>
<path d="M12.0314 28.6877C11.4314 29.3627 10.8126 29.9815 10.2783 30.6658C9.68764 31.4158 9.31264 32.2877 9.06889 33.2158C9.02201 33.4033 8.95639 33.4783 8.75014 33.4783C6.32201 33.469 3.90326 33.4783 1.47514 33.469C1.06264 33.469 0.884511 33.2627 0.931386 32.8502C1.27826 29.8033 3.44389 27.4971 6.46264 26.9533C8.42201 26.5971 10.6439 27.3096 12.0314 28.6877Z" fill="currentColor"/>
<path d="M17.0189 20.2218C19.1471 20.2406 20.8721 21.9843 20.8439 24.075C20.8158 26.2031 19.0627 27.9281 16.9721 27.8906C14.8627 27.8625 13.1564 26.1375 13.1658 24.0468C13.1658 21.9281 14.9002 20.2031 17.0189 20.2218Z" fill="currentColor"/>
<path d="M26.4782 26.522C24.5188 26.5127 22.9344 24.9189 22.925 22.9689C22.925 20.9908 24.5469 19.3877 26.5344 19.4064C28.4938 19.4252 30.0782 21.0283 30.0688 22.9783C30.0594 24.947 28.4563 26.5314 26.4782 26.522Z" fill="currentColor"/>
<path d="M7.48444 26.522C5.50632 26.5127 3.91257 24.9002 3.93132 22.9408C3.95007 20.972 5.55319 19.3877 7.53132 19.4064C9.49069 19.4252 11.0751 21.0189 11.0751 22.9689C11.0657 24.9377 9.46257 26.5314 7.48444 26.522Z" fill="currentColor"/>
<path d="M16.1375 10.003C16.9813 9.1874 17.75 8.41865 18.5375 7.66865C18.6969 7.51865 18.9125 7.37803 19.1281 7.32178C19.5219 7.21865 19.9063 7.43428 20.0938 7.78115C20.2719 8.12803 20.225 8.5499 19.925 8.8499C19.3344 9.46865 18.725 10.0687 18.125 10.678C17.7406 11.0718 17.3563 11.4655 16.9625 11.8499C16.4844 12.3187 15.9969 12.328 15.5188 11.878C15.05 11.4374 14.5906 10.9874 14.1406 10.528C13.7281 10.1155 13.7 9.5624 14.0656 9.1874C14.4313 8.8124 14.9938 8.82178 15.4156 9.21553C15.6688 9.46865 15.9031 9.7499 16.1375 10.003Z" fill="currentColor"/>
</svg>
