<svg width="30" height="31" viewBox="0 0 30 31" fill="none" xmlns="http://www.w3.org/2000/svg">
<path d="M16.684 14.5897C15.8244 15.1679 15.3087 15.9494 15.2384 17.0044C15.2305 17.1059 15.1055 17.2466 14.9961 17.2857C13.3316 17.8874 12.5502 20.1927 13.5504 21.7243C13.6129 21.8259 13.5739 22.0057 13.5582 22.1463C13.5582 22.201 13.4879 22.2401 13.4723 22.2948C13.3707 22.7637 13.0425 22.7715 12.6439 22.7715C8.94765 22.7715 5.24356 22.7715 1.53947 22.7715C0.687686 22.7715 0.461065 22.5136 0.562654 21.6696C0.984639 18.3172 2.62569 15.6993 5.54833 14.0192C9.22116 11.9093 12.9018 12.1046 16.4574 14.4021C16.5199 14.4412 16.5825 14.4959 16.645 14.5428C16.6606 14.5584 16.6684 14.574 16.684 14.5897Z" fill="currentColor"/>
<path d="M14.0274 23.5372C14.0899 23.3496 14.168 22.998 14.3399 22.7088C14.6447 22.1931 14.6525 21.7164 14.3399 21.2006C13.6835 20.1222 14.1602 18.6765 15.3246 18.1842C15.8481 17.9576 16.1373 17.5981 16.1842 17.012C16.2858 15.7226 17.5283 14.824 18.7864 15.1209C19.3334 15.2459 19.7789 15.1131 20.1461 14.6833C20.9979 13.6909 22.5061 13.6909 23.3579 14.6833C23.7408 15.1209 24.1863 15.2538 24.7489 15.1209C25.9602 14.8318 27.1948 15.7148 27.3121 16.9573C27.3668 17.5825 27.6637 17.9732 28.242 18.2155C29.3438 18.6687 29.8205 20.1378 29.2032 21.1537C28.875 21.7008 28.8672 22.1931 29.1954 22.7401C29.8205 23.7794 29.3517 25.2329 28.2264 25.694C27.6481 25.9362 27.359 26.3348 27.3121 26.9599C27.2027 28.1634 25.968 29.0699 24.7958 28.7885C24.1863 28.6401 23.7252 28.7964 23.311 29.2652C22.5296 30.1795 20.9745 30.1795 20.193 29.2652C19.7867 28.7885 19.3256 28.6401 18.7083 28.7885C17.5283 29.0699 16.2858 28.1556 16.1842 26.9287C16.1295 26.3113 15.8403 25.9362 15.2777 25.694C14.4337 25.3189 14.0899 24.5921 14.0274 23.5372ZM16.9656 21.9352C16.9578 24.5687 19.1068 26.7333 21.7325 26.7411C24.3816 26.7568 26.5462 24.6078 26.5541 21.9586C26.5619 19.3017 24.4207 17.1449 21.7716 17.1371C19.1224 17.1371 16.9734 19.2782 16.9656 21.9352Z" fill="currentColor"/>
<path d="M10.6743 1.06252C13.7142 1.0547 16.1679 3.50065 16.1835 6.54051C16.1914 9.59599 13.7454 12.0576 10.6899 12.0654C7.65007 12.0732 5.17287 9.59599 5.17287 6.55614C5.18068 3.51628 7.63445 1.07033 10.6743 1.06252Z" fill="currentColor"/>
<path d="M20.9591 22.1851C21.764 21.4037 22.5063 20.6691 23.2487 19.9345C23.5144 19.6688 23.827 19.5751 24.1865 19.6845C24.7804 19.872 24.9523 20.6222 24.5147 21.0911C24.1083 21.5287 23.6785 21.9429 23.2643 22.3648C22.7564 22.8806 22.2485 23.3964 21.7405 23.9043C21.2873 24.3576 20.8184 24.3654 20.3573 23.9121C19.9353 23.5058 19.5134 23.0994 19.0992 22.6852C18.685 22.2789 18.6538 21.7553 19.021 21.3958C19.3805 21.0442 19.8963 21.0598 20.2948 21.4662C20.5214 21.7006 20.7402 21.9507 20.9591 22.1851Z" fill="currentColor"/>
</svg>
